<?xml version="1.0" encoding="UTF-8"?>
<svg xmlns="http://www.w3.org/2000/svg" xmlns:xlink="http://www.w3.org/1999/xlink" width="16px" height="16px" viewBox="0 0 16 16" version="1.1">
<g id="surface1">
<path style=" stroke:none;fill-rule:nonzero;fill:rgb(0%,0%,0%);fill-opacity:1;" d="M 0 8 L 0 16 L 16 16 L 16 0 L 0 0 Z M 8.273438 2.4375 C 8.25 2.445312 8.257812 2.449219 8.308594 2.457031 C 8.34375 2.464844 8.375 2.476562 8.375 2.484375 C 8.375 2.507812 8.597656 2.503906 8.660156 2.476562 C 8.730469 2.449219 8.75 2.445312 8.75 2.472656 C 8.75 2.484375 8.777344 2.507812 8.8125 2.527344 C 8.875 2.558594 8.875 2.5625 8.875 2.53125 C 8.875 2.503906 8.886719 2.5 8.9375 2.5 C 8.988281 2.5 9 2.503906 8.992188 2.523438 C 8.988281 2.535156 8.992188 2.546875 8.996094 2.546875 C 9.035156 2.539062 9.113281 2.570312 9.125 2.601562 C 9.136719 2.625 9.140625 2.617188 9.140625 2.566406 C 9.140625 2.523438 9.148438 2.5 9.15625 2.507812 C 9.164062 2.511719 9.171875 2.535156 9.171875 2.554688 C 9.171875 2.578125 9.179688 2.59375 9.1875 2.59375 C 9.195312 2.59375 9.203125 2.585938 9.203125 2.578125 C 9.203125 2.546875 9.234375 2.5625 9.234375 2.597656 C 9.238281 2.625 9.238281 2.628906 9.246094 2.605469 C 9.25 2.582031 9.261719 2.578125 9.285156 2.585938 C 9.304688 2.589844 9.335938 2.597656 9.355469 2.601562 C 9.40625 2.609375 9.417969 2.625 9.375 2.625 L 9.335938 2.625 L 9.375 2.648438 C 9.40625 2.664062 9.417969 2.664062 9.4375 2.648438 C 9.46875 2.617188 9.5 2.617188 9.5 2.648438 C 9.5 2.660156 9.507812 2.667969 9.523438 2.664062 C 9.535156 2.65625 9.554688 2.660156 9.566406 2.671875 C 9.652344 2.742188 9.664062 2.75 9.726562 2.75 C 9.808594 2.746094 9.882812 2.761719 9.957031 2.800781 C 9.988281 2.816406 10.023438 2.828125 10.03125 2.820312 C 10.046875 2.8125 10.125 2.84375 10.125 2.863281 C 10.125 2.867188 10.140625 2.875 10.160156 2.875 C 10.203125 2.875 10.25 2.917969 10.25 2.960938 C 10.25 2.976562 10.257812 3.003906 10.265625 3.015625 C 10.28125 3.035156 10.28125 3.035156 10.296875 3.015625 C 10.3125 2.996094 10.3125 2.996094 10.328125 3.015625 C 10.339844 3.035156 10.34375 3.035156 10.367188 3.007812 C 10.390625 2.976562 10.390625 2.976562 10.382812 3.011719 C 10.375 3.039062 10.382812 3.046875 10.464844 3.0625 C 10.515625 3.070312 10.578125 3.09375 10.605469 3.109375 C 10.632812 3.125 10.667969 3.136719 10.679688 3.132812 C 10.691406 3.125 10.703125 3.128906 10.703125 3.140625 C 10.703125 3.152344 10.714844 3.15625 10.726562 3.148438 C 10.742188 3.144531 10.75 3.148438 10.75 3.164062 C 10.75 3.175781 10.757812 3.1875 10.769531 3.1875 C 10.785156 3.1875 10.785156 3.191406 10.769531 3.199219 C 10.726562 3.214844 10.75 3.25 10.800781 3.25 C 10.828125 3.25 10.867188 3.253906 10.886719 3.257812 C 10.914062 3.265625 10.917969 3.273438 10.90625 3.289062 C 10.890625 3.308594 10.894531 3.3125 10.929688 3.3125 C 10.964844 3.3125 10.96875 3.316406 10.953125 3.335938 C 10.941406 3.351562 10.945312 3.359375 10.984375 3.367188 C 11.011719 3.371094 11.0625 3.402344 11.09375 3.4375 C 11.140625 3.484375 11.171875 3.5 11.203125 3.5 C 11.238281 3.5 11.25 3.507812 11.25 3.53125 C 11.25 3.546875 11.257812 3.5625 11.265625 3.5625 C 11.300781 3.5625 11.371094 3.644531 11.382812 3.695312 C 11.390625 3.746094 11.398438 3.753906 11.429688 3.746094 C 11.472656 3.738281 11.546875 3.789062 11.515625 3.804688 C 11.484375 3.824219 11.5 3.84375 11.5625 3.859375 C 11.601562 3.867188 11.625 3.886719 11.625 3.898438 C 11.625 3.910156 11.628906 3.921875 11.636719 3.921875 C 11.644531 3.921875 11.664062 3.953125 11.679688 3.992188 C 11.695312 4.03125 11.714844 4.0625 11.722656 4.0625 C 11.730469 4.0625 11.734375 4.078125 11.734375 4.09375 C 11.734375 4.125 11.742188 4.128906 11.78125 4.117188 C 11.808594 4.113281 11.828125 4.117188 11.820312 4.125 C 11.804688 4.152344 11.84375 4.214844 11.886719 4.234375 C 11.910156 4.242188 11.949219 4.28125 11.972656 4.316406 C 11.996094 4.351562 12.015625 4.371094 12.015625 4.359375 C 12.015625 4.351562 12.023438 4.347656 12.03125 4.351562 C 12.039062 4.355469 12.046875 4.375 12.046875 4.390625 C 12.046875 4.40625 12.0625 4.429688 12.078125 4.445312 C 12.09375 4.460938 12.105469 4.476562 12.101562 4.484375 C 12.097656 4.492188 12.117188 4.515625 12.148438 4.539062 C 12.1875 4.570312 12.203125 4.59375 12.199219 4.609375 C 12.195312 4.625 12.203125 4.648438 12.214844 4.660156 C 12.234375 4.675781 12.238281 4.675781 12.230469 4.652344 C 12.222656 4.632812 12.226562 4.625 12.234375 4.632812 C 12.246094 4.640625 12.25 4.652344 12.242188 4.664062 C 12.238281 4.675781 12.25 4.691406 12.265625 4.695312 C 12.300781 4.707031 12.308594 4.757812 12.277344 4.769531 C 12.265625 4.773438 12.261719 4.78125 12.269531 4.789062 C 12.277344 4.796875 12.292969 4.789062 12.308594 4.777344 C 12.347656 4.742188 12.371094 4.742188 12.335938 4.773438 C 12.308594 4.804688 12.308594 4.8125 12.328125 4.84375 C 12.34375 4.863281 12.34375 4.863281 12.359375 4.84375 C 12.375 4.824219 12.375 4.824219 12.367188 4.847656 C 12.363281 4.867188 12.367188 4.875 12.394531 4.875 C 12.414062 4.875 12.421875 4.882812 12.410156 4.886719 C 12.394531 4.890625 12.394531 4.898438 12.40625 4.914062 C 12.414062 4.925781 12.421875 4.945312 12.417969 4.953125 C 12.414062 4.964844 12.429688 4.984375 12.445312 4.992188 C 12.464844 5 12.507812 5.050781 12.546875 5.105469 C 12.613281 5.207031 12.621094 5.226562 12.59375 5.210938 C 12.578125 5.203125 12.578125 5.210938 12.585938 5.234375 C 12.59375 5.265625 12.59375 5.269531 12.578125 5.25 C 12.570312 5.238281 12.566406 5.210938 12.570312 5.195312 C 12.574219 5.179688 12.574219 5.171875 12.570312 5.183594 C 12.558594 5.203125 12.53125 5.195312 12.53125 5.171875 C 12.53125 5.160156 12.539062 5.160156 12.546875 5.164062 C 12.554688 5.167969 12.5625 5.164062 12.5625 5.15625 C 12.5625 5.148438 12.554688 5.140625 12.546875 5.140625 C 12.539062 5.136719 12.523438 5.136719 12.511719 5.132812 C 12.5 5.132812 12.492188 5.121094 12.496094 5.109375 C 12.5 5.101562 12.492188 5.09375 12.484375 5.101562 C 12.476562 5.105469 12.5 5.152344 12.535156 5.207031 C 12.59375 5.296875 12.648438 5.367188 12.617188 5.3125 C 12.609375 5.300781 12.613281 5.296875 12.625 5.300781 C 12.640625 5.304688 12.648438 5.324219 12.652344 5.34375 C 12.652344 5.367188 12.652344 5.390625 12.65625 5.398438 C 12.65625 5.410156 12.675781 5.4375 12.699219 5.460938 C 12.722656 5.484375 12.734375 5.5 12.726562 5.496094 C 12.714844 5.488281 12.75 5.566406 12.800781 5.664062 C 13.058594 6.164062 13.234375 6.722656 13.328125 7.339844 C 13.371094 7.613281 13.386719 8.210938 13.359375 8.515625 C 13.292969 9.296875 13.058594 10.0625 12.691406 10.722656 C 12.507812 11.050781 12.199219 11.492188 12.167969 11.472656 C 12.160156 11.46875 12.15625 11.472656 12.160156 11.480469 C 12.191406 11.527344 11.5 12.226562 11.453125 12.195312 C 11.445312 12.191406 11.441406 12.195312 11.445312 12.207031 C 11.449219 12.21875 11.414062 12.257812 11.367188 12.292969 C 11.28125 12.359375 11.253906 12.375 11.273438 12.339844 C 11.28125 12.328125 11.28125 12.328125 11.265625 12.335938 C 11.257812 12.339844 11.253906 12.351562 11.257812 12.359375 C 11.269531 12.378906 11.210938 12.410156 11.195312 12.394531 C 11.1875 12.386719 11.1875 12.390625 11.191406 12.398438 C 11.203125 12.417969 11.003906 12.558594 10.980469 12.550781 C 10.976562 12.546875 10.96875 12.554688 10.96875 12.5625 C 10.96875 12.578125 10.863281 12.644531 10.835938 12.644531 C 10.824219 12.644531 10.816406 12.648438 10.820312 12.65625 C 10.828125 12.667969 10.351562 12.914062 10.210938 12.972656 C 10.140625 13 10.09375 13.007812 10.023438 13.007812 C 9.957031 13.003906 9.9375 13.007812 9.957031 13.019531 C 9.972656 13.027344 10.007812 13.027344 10.03125 13.023438 C 10.101562 13.007812 10.085938 13.023438 10.007812 13.054688 C 9.9375 13.078125 9.867188 13.070312 9.929688 13.046875 C 9.957031 13.035156 9.953125 13.03125 9.910156 13.023438 C 9.882812 13.015625 9.855469 13.003906 9.851562 13 C 9.839844 12.980469 9.8125 12.980469 9.8125 13 C 9.8125 13.007812 9.824219 13.015625 9.839844 13.019531 C 9.859375 13.023438 9.851562 13.027344 9.824219 13.03125 C 9.800781 13.03125 9.777344 13.039062 9.773438 13.046875 C 9.765625 13.054688 9.757812 13.058594 9.75 13.054688 C 9.742188 13.046875 9.734375 13.050781 9.734375 13.058594 C 9.734375 13.074219 9.621094 13.074219 9.59375 13.054688 C 9.578125 13.046875 9.570312 13.046875 9.566406 13.058594 C 9.558594 13.085938 9.519531 13.082031 9.511719 13.058594 C 9.507812 13.046875 9.5 13.058594 9.5 13.082031 C 9.5 13.117188 9.507812 13.125 9.550781 13.128906 L 9.601562 13.132812 L 9.539062 13.152344 C 9.492188 13.167969 9.460938 13.167969 9.4375 13.15625 C 9.398438 13.140625 9.402344 13.140625 9.445312 13.144531 C 9.472656 13.148438 9.484375 13.148438 9.472656 13.144531 C 9.460938 13.140625 9.460938 13.128906 9.464844 13.117188 C 9.46875 13.101562 9.464844 13.09375 9.453125 13.09375 C 9.445312 13.09375 9.4375 13.101562 9.4375 13.109375 C 9.4375 13.117188 9.425781 13.125 9.414062 13.125 C 9.402344 13.125 9.390625 13.117188 9.390625 13.105469 C 9.390625 13.09375 9.386719 13.089844 9.378906 13.101562 C 9.371094 13.113281 9.335938 13.125 9.296875 13.132812 C 9.257812 13.140625 9.207031 13.15625 9.179688 13.171875 C 9.121094 13.207031 9.03125 13.222656 9.007812 13.203125 C 9 13.195312 8.960938 13.1875 8.925781 13.183594 C 8.855469 13.179688 8.839844 13.195312 8.882812 13.242188 C 8.90625 13.265625 8.90625 13.265625 8.875 13.265625 C 8.859375 13.265625 8.84375 13.261719 8.847656 13.253906 C 8.851562 13.246094 8.84375 13.242188 8.835938 13.242188 C 8.828125 13.242188 8.820312 13.246094 8.824219 13.253906 C 8.828125 13.261719 8.824219 13.265625 8.816406 13.265625 C 8.691406 13.277344 8.679688 13.277344 8.71875 13.265625 C 8.742188 13.257812 8.75 13.253906 8.738281 13.25 C 8.726562 13.25 8.722656 13.242188 8.726562 13.226562 C 8.734375 13.214844 8.730469 13.203125 8.71875 13.195312 C 8.710938 13.191406 8.695312 13.203125 8.6875 13.226562 C 8.679688 13.246094 8.660156 13.265625 8.644531 13.265625 C 8.625 13.265625 8.625 13.261719 8.636719 13.25 C 8.644531 13.238281 8.648438 13.21875 8.644531 13.210938 C 8.632812 13.175781 8.609375 13.183594 8.621094 13.21875 C 8.625 13.234375 8.621094 13.25 8.609375 13.25 C 8.601562 13.25 8.59375 13.242188 8.59375 13.234375 C 8.59375 13.226562 8.578125 13.21875 8.5625 13.21875 C 8.546875 13.21875 8.53125 13.210938 8.53125 13.195312 C 8.53125 13.183594 8.523438 13.167969 8.515625 13.164062 C 8.5 13.15625 8.5 13.164062 8.503906 13.199219 C 8.507812 13.242188 8.507812 13.246094 8.441406 13.242188 C 8.386719 13.242188 8.375 13.246094 8.375 13.269531 C 8.375 13.304688 8.371094 13.304688 8.308594 13.273438 C 8.277344 13.257812 8.222656 13.246094 8.171875 13.246094 C 8.046875 13.25 8.011719 13.238281 8.03125 13.203125 C 8.0625 13.140625 8.042969 13.152344 7.984375 13.226562 C 7.960938 13.253906 7.964844 13.253906 7.988281 13.246094 C 8.003906 13.242188 8.019531 13.242188 8.023438 13.25 C 8.027344 13.257812 8.015625 13.269531 7.996094 13.273438 C 7.976562 13.28125 7.960938 13.277344 7.957031 13.265625 C 7.945312 13.234375 7.875 13.164062 7.875 13.183594 C 7.875 13.214844 7.742188 13.210938 7.726562 13.175781 C 7.71875 13.152344 7.714844 13.152344 7.6875 13.1875 C 7.667969 13.210938 7.652344 13.21875 7.648438 13.210938 C 7.625 13.15625 7.613281 13.152344 7.578125 13.175781 C 7.554688 13.1875 7.535156 13.203125 7.527344 13.210938 C 7.523438 13.21875 7.511719 13.222656 7.507812 13.214844 C 7.492188 13.203125 7.535156 13.140625 7.5625 13.132812 C 7.582031 13.128906 7.582031 13.128906 7.558594 13.125 C 7.546875 13.125 7.523438 13.136719 7.507812 13.148438 C 7.492188 13.167969 7.46875 13.171875 7.429688 13.167969 C 7.382812 13.160156 7.375 13.164062 7.375 13.191406 C 7.375 13.21875 7.371094 13.222656 7.359375 13.203125 C 7.351562 13.191406 7.351562 13.171875 7.359375 13.152344 C 7.371094 13.132812 7.371094 13.125 7.351562 13.125 C 7.339844 13.125 7.328125 13.136719 7.328125 13.148438 C 7.328125 13.179688 7.3125 13.179688 7.289062 13.144531 C 7.269531 13.121094 7.265625 13.125 7.265625 13.179688 C 7.261719 13.214844 7.261719 13.246094 7.265625 13.253906 C 7.265625 13.269531 7.25 13.269531 7.117188 13.238281 C 7.054688 13.226562 7.003906 13.210938 7.007812 13.207031 C 7.023438 13.191406 6.921875 13.140625 6.886719 13.140625 C 6.863281 13.140625 6.875 13.152344 6.917969 13.167969 C 6.957031 13.179688 6.984375 13.195312 6.976562 13.199219 C 6.976562 13.203125 6.890625 13.179688 6.792969 13.148438 C 6.523438 13.0625 6.507812 13.054688 6.511719 13.03125 C 6.515625 13.015625 6.511719 13.015625 6.496094 13.027344 C 6.480469 13.039062 6.464844 13.039062 6.4375 13.027344 C 6.414062 13.015625 6.355469 12.988281 6.304688 12.96875 C 6.09375 12.886719 5.597656 12.625 5.617188 12.605469 C 5.621094 12.601562 5.617188 12.597656 5.605469 12.597656 C 5.578125 12.597656 5.195312 12.34375 5.0625 12.230469 C 4.894531 12.09375 4.429688 11.625 4.304688 11.46875 C 4.25 11.394531 4.125 11.222656 4.035156 11.085938 C 3.550781 10.363281 3.246094 9.496094 3.15625 8.601562 C 3.125 8.324219 3.128906 7.753906 3.160156 7.507812 C 3.210938 7.128906 3.304688 6.699219 3.398438 6.417969 C 3.421875 6.355469 3.433594 6.304688 3.429688 6.300781 C 3.425781 6.296875 3.421875 6.300781 3.421875 6.3125 C 3.421875 6.324219 3.417969 6.328125 3.414062 6.324219 C 3.398438 6.3125 3.421875 6.265625 3.4375 6.273438 C 3.453125 6.28125 3.460938 6.246094 3.457031 6.191406 C 3.457031 6.179688 3.460938 6.175781 3.46875 6.179688 C 3.476562 6.183594 3.492188 6.160156 3.507812 6.125 C 3.535156 6.054688 3.539062 6.027344 3.515625 6.0625 C 3.507812 6.074219 3.5 6.078125 3.5 6.070312 C 3.5 6.046875 3.53125 6.003906 3.53125 6.023438 C 3.53125 6.03125 3.542969 6.023438 3.554688 6 C 3.566406 5.976562 3.570312 5.941406 3.566406 5.917969 C 3.5625 5.890625 3.566406 5.875 3.574219 5.875 C 3.585938 5.875 3.589844 5.886719 3.585938 5.902344 C 3.578125 5.921875 3.578125 5.921875 3.589844 5.910156 C 3.597656 5.898438 3.601562 5.867188 3.601562 5.835938 C 3.597656 5.796875 3.601562 5.777344 3.625 5.765625 C 3.640625 5.757812 3.65625 5.757812 3.664062 5.761719 C 3.671875 5.769531 3.671875 5.761719 3.660156 5.746094 C 3.640625 5.726562 3.640625 5.714844 3.660156 5.6875 C 3.671875 5.671875 3.6875 5.660156 3.703125 5.664062 C 3.71875 5.671875 3.71875 5.667969 3.703125 5.644531 C 3.683594 5.621094 3.683594 5.621094 3.707031 5.628906 C 3.742188 5.640625 3.769531 5.589844 3.761719 5.53125 C 3.757812 5.503906 3.761719 5.488281 3.773438 5.496094 C 3.78125 5.5 3.78125 5.492188 3.773438 5.476562 C 3.769531 5.460938 3.761719 5.429688 3.757812 5.40625 C 3.753906 5.375 3.757812 5.371094 3.773438 5.394531 C 3.789062 5.417969 3.796875 5.417969 3.828125 5.382812 C 3.847656 5.359375 3.867188 5.347656 3.875 5.351562 C 3.878906 5.359375 3.871094 5.367188 3.859375 5.375 C 3.84375 5.382812 3.84375 5.390625 3.855469 5.390625 C 3.867188 5.390625 3.882812 5.375 3.890625 5.359375 C 3.90625 5.332031 3.90625 5.328125 3.890625 5.335938 C 3.878906 5.34375 3.875 5.328125 3.878906 5.285156 C 3.882812 5.246094 3.894531 5.226562 3.910156 5.230469 C 3.925781 5.234375 3.929688 5.222656 3.929688 5.1875 C 3.925781 5.136719 3.957031 5.078125 3.988281 5.078125 C 4 5.078125 4.023438 5.0625 4.042969 5.042969 C 4.070312 5.019531 4.082031 5.015625 4.089844 5.027344 C 4.097656 5.039062 4.109375 5.035156 4.125 5.011719 C 4.144531 4.980469 4.140625 4.976562 4.121094 4.996094 C 4.101562 5.011719 4.09375 5.007812 4.070312 4.976562 C 4.054688 4.953125 4.046875 4.929688 4.054688 4.925781 C 4.058594 4.921875 4.0625 4.925781 4.0625 4.9375 C 4.0625 4.949219 4.074219 4.953125 4.09375 4.949219 C 4.109375 4.945312 4.125 4.949219 4.128906 4.957031 C 4.136719 4.984375 4.164062 4.960938 4.21875 4.878906 C 4.253906 4.828125 4.257812 4.8125 4.234375 4.835938 C 4.21875 4.851562 4.199219 4.875 4.195312 4.894531 C 4.179688 4.933594 4.160156 4.914062 4.152344 4.851562 C 4.148438 4.824219 4.148438 4.8125 4.152344 4.824219 C 4.15625 4.835938 4.164062 4.84375 4.171875 4.84375 C 4.183594 4.84375 4.183594 4.828125 4.179688 4.8125 C 4.167969 4.777344 4.195312 4.769531 4.210938 4.800781 C 4.214844 4.8125 4.214844 4.804688 4.210938 4.785156 C 4.203125 4.757812 4.207031 4.753906 4.230469 4.761719 C 4.25 4.765625 4.265625 4.757812 4.273438 4.75 C 4.28125 4.738281 4.28125 4.734375 4.269531 4.738281 C 4.261719 4.746094 4.257812 4.726562 4.257812 4.691406 C 4.257812 4.640625 4.265625 4.632812 4.300781 4.632812 C 4.351562 4.632812 4.363281 4.621094 4.367188 4.558594 C 4.375 4.515625 4.453125 4.390625 4.488281 4.378906 C 4.492188 4.375 4.5 4.363281 4.5 4.351562 C 4.5 4.335938 4.507812 4.328125 4.515625 4.328125 C 4.523438 4.328125 4.53125 4.316406 4.53125 4.304688 C 4.53125 4.292969 4.546875 4.28125 4.5625 4.28125 C 4.582031 4.28125 4.597656 4.265625 4.601562 4.242188 C 4.609375 4.21875 4.617188 4.203125 4.625 4.203125 C 4.65625 4.203125 4.742188 4.117188 4.738281 4.089844 C 4.734375 4.070312 4.742188 4.0625 4.765625 4.0625 C 4.792969 4.0625 4.796875 4.054688 4.792969 4.03125 C 4.789062 4.011719 4.789062 4 4.800781 4 C 4.847656 4.007812 4.875 4 4.875 3.980469 C 4.863281 3.910156 4.875 3.875 4.921875 3.855469 C 4.964844 3.835938 4.996094 3.792969 4.988281 3.761719 C 4.984375 3.742188 5.121094 3.75 5.128906 3.769531 C 5.132812 3.78125 5.132812 3.765625 5.128906 3.738281 C 5.121094 3.695312 5.125 3.6875 5.160156 3.679688 C 5.1875 3.671875 5.207031 3.652344 5.21875 3.621094 C 5.234375 3.574219 5.238281 3.574219 5.25 3.601562 C 5.261719 3.632812 5.261719 3.632812 5.273438 3.605469 C 5.28125 3.589844 5.277344 3.570312 5.265625 3.558594 C 5.242188 3.53125 5.246094 3.5 5.277344 3.5 C 5.34375 3.507812 5.375 3.5 5.367188 3.480469 C 5.351562 3.445312 5.480469 3.371094 5.546875 3.371094 C 5.601562 3.371094 5.609375 3.363281 5.628906 3.320312 C 5.640625 3.296875 5.648438 3.269531 5.644531 3.261719 C 5.640625 3.253906 5.652344 3.25 5.664062 3.25 C 5.675781 3.25 5.6875 3.242188 5.6875 3.234375 C 5.6875 3.226562 5.707031 3.214844 5.730469 3.203125 C 5.800781 3.175781 5.84375 3.148438 5.832031 3.136719 C 5.828125 3.128906 5.835938 3.125 5.847656 3.125 C 5.863281 3.125 5.875 3.132812 5.875 3.144531 C 5.875 3.15625 5.878906 3.15625 5.890625 3.140625 C 5.898438 3.125 5.898438 3.113281 5.886719 3.105469 C 5.875 3.097656 5.878906 3.09375 5.898438 3.085938 C 5.914062 3.078125 5.941406 3.070312 5.960938 3.058594 C 5.980469 3.046875 5.992188 3.050781 6 3.0625 C 6.011719 3.082031 6.023438 3.074219 6.058594 3.042969 C 6.082031 3.019531 6.117188 3 6.128906 3 C 6.144531 3 6.15625 2.992188 6.15625 2.980469 C 6.15625 2.964844 6.160156 2.964844 6.171875 2.980469 C 6.1875 3.007812 6.242188 3 6.242188 2.96875 C 6.242188 2.957031 6.253906 2.945312 6.265625 2.949219 C 6.285156 2.953125 6.285156 2.953125 6.269531 2.9375 C 6.238281 2.90625 6.246094 2.894531 6.300781 2.882812 C 6.328125 2.878906 6.386719 2.859375 6.425781 2.835938 C 6.46875 2.8125 6.511719 2.804688 6.527344 2.808594 C 6.554688 2.820312 6.554688 2.820312 6.527344 2.824219 C 6.511719 2.828125 6.5 2.835938 6.5 2.84375 C 6.5 2.863281 6.542969 2.863281 6.554688 2.84375 C 6.558594 2.835938 6.578125 2.828125 6.59375 2.828125 C 6.609375 2.828125 6.625 2.820312 6.625 2.8125 C 6.625 2.804688 6.613281 2.796875 6.601562 2.796875 C 6.589844 2.796875 6.578125 2.789062 6.578125 2.78125 C 6.578125 2.769531 6.59375 2.765625 6.625 2.773438 C 6.667969 2.78125 6.714844 2.765625 6.761719 2.722656 C 6.78125 2.703125 6.820312 2.695312 6.871094 2.699219 C 6.882812 2.699219 6.886719 2.695312 6.882812 2.6875 C 6.875 2.679688 6.890625 2.671875 6.917969 2.671875 C 6.941406 2.671875 6.972656 2.664062 6.984375 2.65625 C 7.003906 2.640625 7.003906 2.640625 6.984375 2.625 C 6.96875 2.617188 6.984375 2.613281 7.027344 2.617188 C 7.082031 2.621094 7.09375 2.617188 7.085938 2.601562 C 7.082031 2.585938 7.085938 2.582031 7.101562 2.585938 C 7.113281 2.59375 7.148438 2.589844 7.179688 2.578125 C 7.226562 2.566406 7.242188 2.566406 7.253906 2.582031 C 7.261719 2.59375 7.265625 2.589844 7.265625 2.566406 C 7.265625 2.546875 7.273438 2.53125 7.289062 2.53125 C 7.320312 2.53125 7.320312 2.578125 7.285156 2.601562 C 7.257812 2.625 7.257812 2.625 7.285156 2.625 C 7.300781 2.625 7.3125 2.617188 7.3125 2.609375 C 7.3125 2.601562 7.328125 2.59375 7.34375 2.59375 C 7.382812 2.59375 7.382812 2.574219 7.351562 2.546875 C 7.339844 2.535156 7.328125 2.519531 7.328125 2.511719 C 7.328125 2.503906 7.34375 2.515625 7.363281 2.53125 C 7.410156 2.574219 7.492188 2.570312 7.496094 2.523438 C 7.5 2.492188 7.507812 2.488281 7.550781 2.5 C 7.59375 2.507812 7.648438 2.507812 7.726562 2.5 C 7.738281 2.5 7.757812 2.492188 7.769531 2.476562 C 7.78125 2.46875 7.8125 2.453125 7.839844 2.445312 C 7.882812 2.4375 7.886719 2.4375 7.878906 2.46875 C 7.871094 2.496094 7.878906 2.5 7.9375 2.5 C 7.988281 2.5 8 2.496094 8 2.46875 C 8 2.441406 8.011719 2.4375 8.128906 2.433594 C 8.199219 2.429688 8.269531 2.425781 8.28125 2.425781 C 8.292969 2.425781 8.289062 2.429688 8.273438 2.4375 Z M 8.273438 2.4375 "/>
<path style=" stroke:none;fill-rule:nonzero;fill:rgb(0%,0%,0%);fill-opacity:1;" d="M 7.960938 3.710938 C 7.636719 3.773438 7.347656 3.929688 7.113281 4.175781 C 6.917969 4.382812 6.785156 4.617188 6.71875 4.867188 C 6.65625 5.089844 6.664062 5.226562 6.796875 6.390625 C 6.832031 6.695312 6.875 7.105469 6.898438 7.304688 C 7.023438 8.457031 7.09375 9.046875 7.109375 9.132812 C 7.144531 9.285156 7.253906 9.484375 7.378906 9.617188 C 7.6875 9.949219 8.089844 10.070312 8.523438 9.960938 C 8.925781 9.859375 9.257812 9.546875 9.351562 9.179688 C 9.375 9.085938 9.464844 8.273438 9.601562 6.96875 C 9.640625 6.59375 9.695312 6.082031 9.722656 5.828125 C 9.796875 5.117188 9.789062 4.910156 9.660156 4.621094 C 9.554688 4.378906 9.335938 4.109375 9.128906 3.96875 C 8.988281 3.875 8.761719 3.769531 8.617188 3.734375 C 8.457031 3.691406 8.117188 3.679688 7.960938 3.710938 Z M 8.519531 4.375 C 8.835938 4.484375 9.066406 4.730469 9.148438 5.039062 C 9.183594 5.179688 9.179688 5.363281 9.117188 5.882812 C 9.085938 6.140625 9.035156 6.609375 9 6.929688 C 8.816406 8.601562 8.777344 8.933594 8.761719 8.984375 C 8.71875 9.117188 8.617188 9.226562 8.46875 9.296875 C 8.394531 9.332031 8.363281 9.335938 8.226562 9.335938 C 8.085938 9.335938 8.0625 9.332031 7.984375 9.292969 C 7.851562 9.226562 7.773438 9.152344 7.71875 9.042969 C 7.675781 8.953125 7.667969 8.914062 7.632812 8.5625 C 7.609375 8.351562 7.570312 7.964844 7.539062 7.703125 C 7.507812 7.441406 7.472656 7.09375 7.453125 6.929688 C 7.4375 6.765625 7.390625 6.339844 7.351562 5.984375 C 7.273438 5.289062 7.269531 5.179688 7.324219 5.003906 C 7.390625 4.789062 7.59375 4.546875 7.796875 4.4375 C 7.949219 4.359375 8.089844 4.328125 8.273438 4.335938 C 8.375 4.339844 8.460938 4.351562 8.519531 4.375 Z M 8.519531 4.375 "/>
<path style=" stroke:none;fill-rule:nonzero;fill:rgb(0%,0%,0%);fill-opacity:1;" d="M 7.953125 10.351562 C 7.539062 10.460938 7.230469 10.777344 7.125 11.203125 C 7.0625 11.445312 7.101562 11.734375 7.230469 11.96875 C 7.4375 12.359375 7.796875 12.578125 8.230469 12.578125 C 8.4375 12.578125 8.582031 12.546875 8.746094 12.464844 C 9.167969 12.257812 9.414062 11.800781 9.359375 11.320312 C 9.324219 11.011719 9.195312 10.777344 8.9375 10.558594 C 8.679688 10.339844 8.296875 10.257812 7.953125 10.351562 Z M 8.460938 10.976562 C 8.570312 11.03125 8.671875 11.140625 8.71875 11.257812 C 8.839844 11.574219 8.664062 11.882812 8.320312 11.953125 C 8.0625 12.007812 7.78125 11.828125 7.71875 11.574219 C 7.664062 11.355469 7.753906 11.140625 7.957031 11.003906 C 8.09375 10.914062 8.304688 10.902344 8.460938 10.976562 Z M 8.460938 10.976562 "/>
</g>
</svg>
