<?xml version="1.0" encoding="UTF-8"?>
<svg xmlns="http://www.w3.org/2000/svg" xmlns:xlink="http://www.w3.org/1999/xlink" width="120px" height="48px" viewBox="0 0 120 48" version="1.1">
<g id="surface1">
<path style=" stroke:none;fill-rule:nonzero;fill:rgb(96.470588%,98.823529%,99.215686%);fill-opacity:1;" d="M 3.867188 0 L 116.132812 0 L 116.132812 48 L 3.867188 48 Z M 3.867188 0 "/>
<path style=" stroke:none;fill-rule:nonzero;fill:rgb(3.137255%,21.960784%,44.705882%);fill-opacity:1;" d="M 55.195312 9.1875 L 57.421875 9.1875 L 60.058594 9.234375 L 62.050781 9.304688 L 64.277344 9.421875 L 66.035156 9.5625 L 67.734375 9.75 L 69.375 9.984375 L 71.074219 10.289062 L 72.421875 10.570312 L 73.242188 10.78125 L 74.0625 11.015625 L 74.824219 11.273438 L 75.410156 11.484375 L 76.464844 11.90625 L 77.109375 12.234375 L 77.753906 12.585938 L 78.457031 13.054688 L 79.042969 13.546875 L 79.453125 14.015625 L 79.746094 14.390625 L 79.980469 14.953125 L 80.039062 15.164062 L 80.097656 29.90625 L 80.097656 32.414062 L 79.980469 32.953125 L 79.746094 33.492188 L 79.277344 34.21875 L 78.867188 34.664062 L 78.28125 35.15625 L 77.636719 35.554688 L 77.050781 35.859375 L 76.347656 36.164062 L 75.46875 36.515625 L 74.824219 36.726562 L 73.945312 36.984375 L 73.066406 37.21875 L 71.835938 37.5 L 70.488281 37.757812 L 68.90625 38.015625 L 66.796875 38.296875 L 65.039062 38.460938 L 62.988281 38.601562 L 61.113281 38.695312 L 58.007812 38.789062 L 55.957031 38.8125 L 53.90625 38.789062 L 51.621094 38.71875 L 49.921875 38.648438 L 47.8125 38.507812 L 46.171875 38.367188 L 44.707031 38.203125 L 43.476562 38.039062 L 41.71875 37.734375 L 40.429688 37.476562 L 39.375 37.21875 L 38.144531 36.890625 L 37.558594 36.703125 L 36.796875 36.445312 L 35.625 35.976562 L 34.980469 35.648438 L 34.394531 35.320312 L 33.867188 34.945312 L 33.398438 34.523438 L 32.929688 33.960938 L 32.578125 33.375 L 32.34375 32.695312 L 32.285156 32.460938 L 32.285156 29.484375 L 32.402344 28.757812 L 32.636719 28.125 L 32.988281 27.515625 L 33.515625 26.882812 L 34.335938 26.203125 L 35.039062 25.734375 L 35.507812 25.476562 L 36.09375 25.148438 L 36.738281 24.867188 L 37.148438 24.679688 L 37.96875 24.398438 L 39.023438 24.09375 L 39.902344 23.859375 L 40.722656 23.671875 L 42.1875 23.390625 L 44.707031 23.039062 L 47.578125 22.664062 L 52.675781 21.984375 L 55.078125 21.65625 L 57.597656 21.304688 L 59.355469 21.046875 L 61.523438 20.71875 L 63.28125 20.460938 L 64.570312 20.203125 L 65.332031 19.992188 L 65.507812 19.921875 L 65.625 19.921875 L 65.742188 19.828125 L 66.328125 19.59375 L 67.089844 19.171875 L 67.617188 18.820312 L 67.96875 18.46875 L 68.203125 18.070312 L 68.320312 17.460938 L 68.320312 16.757812 L 68.203125 16.125 L 68.027344 15.796875 L 67.734375 15.445312 L 67.089844 14.953125 L 66.5625 14.671875 L 66.152344 14.484375 L 65.15625 14.179688 L 63.75 13.875 L 62.695312 13.6875 L 61.816406 13.570312 L 60.820312 13.476562 L 59.296875 13.382812 L 58.242188 13.335938 L 54.550781 13.335938 L 52.324219 13.429688 L 50.917969 13.546875 L 49.746094 13.6875 L 48.691406 13.875 L 47.753906 14.109375 L 46.699219 14.53125 L 46.171875 14.835938 L 45.46875 15.304688 L 44.941406 15.867188 L 44.589844 16.453125 L 44.238281 17.085938 L 44.0625 17.15625 L 41.777344 17.203125 L 39.550781 17.226562 L 34.628906 17.226562 L 32.988281 17.203125 L 32.636719 17.132812 L 32.402344 16.898438 L 32.34375 16.78125 L 32.34375 15.9375 L 32.460938 15.257812 L 32.695312 14.578125 L 33.046875 13.992188 L 33.457031 13.5 L 33.984375 13.03125 L 34.6875 12.5625 L 35.273438 12.234375 L 35.800781 11.976562 L 36.445312 11.695312 L 36.855469 11.53125 L 37.5 11.320312 L 38.085938 11.132812 L 39.199219 10.828125 L 40.253906 10.59375 L 41.601562 10.3125 L 43.066406 10.054688 L 45.117188 9.773438 L 47.285156 9.539062 L 49.101562 9.398438 L 51.269531 9.28125 L 52.617188 9.234375 Z M 55.195312 9.1875 "/>
<path style=" stroke:none;fill-rule:nonzero;fill:rgb(96.470588%,98.823529%,99.215686%);fill-opacity:1;" d="M 68.027344 24.117188 L 68.203125 24.117188 L 68.261719 24.375 L 68.203125 30.867188 L 68.085938 31.40625 L 67.851562 31.921875 L 67.5 32.390625 L 67.089844 32.765625 L 66.503906 33.164062 L 66.09375 33.398438 L 65.449219 33.679688 L 64.746094 33.890625 L 63.75 34.101562 L 62.519531 34.289062 L 61.230469 34.429688 L 59.53125 34.546875 L 58.183594 34.59375 L 54.023438 34.59375 L 51.679688 34.476562 L 49.921875 34.3125 L 48.808594 34.148438 L 47.871094 33.960938 L 47.167969 33.75 L 46.582031 33.539062 L 45.996094 33.234375 L 45.46875 32.882812 L 45 32.390625 L 44.648438 31.921875 L 44.414062 31.382812 L 44.355469 31.195312 L 44.355469 30.1875 L 44.53125 29.625 L 44.882812 29.203125 L 45.410156 28.757812 L 45.878906 28.476562 L 46.464844 28.171875 L 46.992188 27.9375 L 47.519531 27.726562 L 48.515625 27.421875 L 49.511719 27.164062 L 50.449219 26.976562 L 51.269531 26.835938 L 53.027344 26.578125 L 58.652344 25.828125 L 63.28125 25.195312 L 65.097656 24.914062 L 66.152344 24.726562 L 66.914062 24.5625 L 67.5 24.375 Z M 68.027344 24.117188 "/>
</g>
</svg>
