<?xml version="1.0" encoding="UTF-8"?>
<svg xmlns="http://www.w3.org/2000/svg" xmlns:xlink="http://www.w3.org/1999/xlink" width="304px" height="336px" viewBox="0 0 304 336" version="1.1">
<g id="surface1">
<path style=" stroke:none;fill-rule:nonzero;fill:rgb(98.823529%,98.823529%,98.823529%);fill-opacity:1;" d="M 0 16.894531 L 304 16.894531 L 304 319.105469 L 0 319.105469 Z M 0 16.894531 "/>
<path style=" stroke:none;fill-rule:nonzero;fill:rgb(2.745098%,21.176471%,42.352941%);fill-opacity:1;" d="M 213.5625 55.140625 L 213.988281 55.140625 L 214.839844 58.191406 L 215.050781 59.597656 L 215.050781 63.585938 L 213.988281 68.042969 L 213.140625 70.15625 L 214.199219 70.625 L 215.050781 71.09375 L 217.386719 71.09375 L 218.660156 70.15625 L 219.933594 67.339844 L 220.144531 64.523438 L 220.570312 65.230469 L 220.996094 68.042969 L 220.996094 72.269531 L 220.144531 76.257812 L 219.082031 79.542969 L 220.570312 80.011719 L 222.480469 80.011719 L 224.179688 79.074219 L 224.816406 78.132812 L 225.238281 78.132812 L 224.816406 81.183594 L 223.964844 84.46875 L 223.117188 86.816406 L 221.417969 90.570312 L 221.207031 91.507812 L 221.207031 94.558594 L 221.84375 97.609375 L 221.84375 101.597656 L 220.996094 103.945312 L 219.71875 105.820312 L 217.386719 108.636719 L 215.261719 110.75 L 212.078125 113.328125 L 208.257812 115.675781 L 205.074219 117.082031 L 204.011719 117.320312 L 203.800781 118.023438 L 203.800781 123.652344 L 204.222656 129.988281 L 204.648438 132.804688 L 208.46875 133.507812 L 212.078125 134.679688 L 215.050781 136.089844 L 219.082031 138.671875 L 221.632812 140.78125 L 224.601562 143.597656 L 226.515625 145.945312 L 229.273438 151.339844 L 230.121094 153.6875 L 230.761719 156.503906 L 231.398438 164.246094 L 231.609375 167.296875 L 231.820312 174.335938 L 231.820312 189.351562 L 231.398438 195.6875 L 230.761719 200.144531 L 229.910156 202.960938 L 228.636719 206.011719 L 228.847656 214.925781 L 229.0625 218.679688 L 229.0625 223.84375 L 228.425781 231.820312 L 227.152344 240.269531 L 225.664062 246.132812 L 224.816406 248.714844 L 226.089844 249.652344 L 227.363281 249.417969 L 229.273438 247.777344 L 231.183594 243.320312 L 232.246094 241.910156 L 233.308594 241.441406 L 235.003906 241.441406 L 238.191406 242.378906 L 243.285156 244.023438 L 247.53125 244.960938 L 253.050781 245.664062 L 260.90625 245.898438 L 261.753906 247.308594 L 261.753906 249.183594 L 260.691406 250.359375 L 258.78125 251.765625 L 256.023438 253.171875 L 251.5625 255.050781 L 247.742188 256.222656 L 243.496094 256.925781 L 240.738281 256.925781 L 236.28125 256.457031 L 234.792969 259.273438 L 232.882812 260.917969 L 231.820312 261.386719 L 231.609375 262.324219 L 231.820312 264.671875 L 229.273438 267.71875 L 226.515625 270.769531 L 224.179688 272.882812 L 221.417969 275.230469 L 217.597656 278.042969 L 213.5625 280.859375 L 206.132812 285.789062 L 202.523438 288.132812 L 199.339844 290.246094 L 195.308594 292.828125 L 190 296.113281 L 185.117188 298.457031 L 181.71875 299.867188 L 177.261719 301.039062 L 175.5625 301.273438 L 172.167969 301.273438 L 168.769531 300.570312 L 166.011719 299.398438 L 163.675781 297.753906 L 161.976562 295.878906 L 160.492188 293.296875 L 160.066406 292.828125 L 154.761719 293.53125 L 150.515625 293.53125 L 146.691406 292.59375 L 143.71875 290.949219 L 142.234375 289.308594 L 140.75 286.726562 L 139.6875 282.738281 L 139.476562 281.09375 L 139.476562 274.761719 L 140.324219 269.597656 L 141.386719 266.078125 L 142.871094 262.792969 L 144.570312 260.210938 L 146.691406 257.160156 L 153.273438 249.886719 L 155.609375 247.777344 L 157.09375 246.132812 L 159.429688 244.023438 L 161.554688 241.910156 L 163.25 240.269531 L 166.222656 237.453125 L 168.347656 235.574219 L 173.015625 231.351562 L 175.988281 228.769531 L 178.113281 226.894531 L 180.660156 224.78125 L 182.144531 223.375 L 183.632812 220.558594 L 184.054688 219.855469 L 182.359375 218.445312 L 178.324219 216.570312 L 177.476562 215.632812 L 177.6875 213.753906 L 178.324219 213.050781 L 179.597656 212.816406 L 182.996094 213.285156 L 184.480469 213.519531 L 184.269531 210.46875 L 183.207031 201.789062 L 181.71875 193.808594 L 180.023438 187.476562 L 177.898438 179.964844 L 176.199219 173.160156 L 174.925781 163.308594 L 174.503906 156.738281 L 174.503906 153.453125 L 174.714844 146.882812 L 174.289062 146.882812 L 173.867188 148.054688 L 171.957031 151.339844 L 169.40625 155.800781 L 166.859375 160.023438 L 164.949219 163.074219 L 162.613281 166.359375 L 160.066406 169.40625 L 158.792969 170.816406 L 158.367188 170.816406 L 158.15625 173.632812 L 157.945312 174.101562 L 157.308594 174.101562 L 157.308594 170.113281 L 156.882812 161.429688 L 156.035156 152.984375 L 155.183594 144.066406 L 154.761719 137.496094 L 154.761719 134.679688 L 155.609375 131.867188 L 156.671875 128.816406 L 156.882812 127.640625 L 157.09375 122.246094 L 157.730469 120.367188 L 157.519531 118.960938 L 156.671875 117.789062 L 154.761719 116.613281 L 152.210938 115.910156 L 151.363281 116.144531 L 150.726562 117.789062 L 152 119.898438 L 153.699219 121.308594 L 153.910156 122.246094 L 152.425781 124.359375 L 150.089844 127.171875 L 148.816406 128.582031 L 148.390625 128.582031 L 147.964844 129.519531 L 147.542969 129.519531 L 147.328125 130.222656 L 145.632812 131.867188 L 144.570312 133.039062 L 144.78125 133.976562 L 146.90625 136.324219 L 146.691406 138.671875 L 145.632812 148.996094 L 145.417969 151.808594 L 145.207031 158.613281 L 145.207031 163.542969 L 145.417969 171.753906 L 146.054688 178.558594 L 147.117188 182.78125 L 148.390625 185.363281 L 148.816406 186.300781 L 149.238281 186.300781 L 150.300781 187.476562 L 152 188.648438 L 153.273438 189.117188 L 156.246094 189.117188 L 159.855469 187.945312 L 163.464844 185.832031 L 165.585938 184.191406 L 168.132812 181.609375 L 169.832031 179.964844 L 171.53125 178.089844 L 173.441406 175.507812 L 175.777344 172.925781 L 175.988281 173.632812 L 174.078125 176.210938 L 171.742188 179.027344 L 167.285156 183.957031 L 164.101562 186.535156 L 160.066406 188.882812 L 157.308594 189.820312 L 156.246094 190.054688 L 153.273438 190.054688 L 151.152344 189.351562 L 149.238281 187.945312 L 148.179688 186.769531 L 146.691406 184.425781 L 145.632812 181.140625 L 144.996094 177.855469 L 144.359375 170.582031 L 144.144531 163.074219 L 144.144531 159.082031 L 144.359375 152.28125 L 144.78125 146.648438 L 145.632812 139.375 L 145.84375 136.792969 L 144.359375 134.917969 L 143.933594 134.210938 L 142.871094 134.210938 L 142.445312 135.152344 L 140.75 136.792969 L 139.6875 137.496094 L 137.5625 137.027344 L 135.867188 135.386719 L 135.015625 133.507812 L 135.015625 131.867188 L 135.867188 130.457031 L 137.5625 128.582031 L 139.261719 126.9375 L 139.6875 126.9375 L 140.113281 125.0625 L 140.324219 122.246094 L 141.171875 119.429688 L 142.445312 117.082031 L 144.144531 114.503906 L 145.207031 113.328125 L 146.269531 112.625 L 147.328125 111.6875 L 149.027344 111.453125 L 150.089844 111.921875 L 151.152344 113.09375 L 152 112.625 L 154.546875 109.808594 L 152.636719 105.351562 L 151.789062 101.597656 L 151.789062 98.3125 L 152.425781 94.558594 L 153.910156 90.804688 L 156.035156 87.753906 L 157.730469 86.113281 L 160.492188 84.234375 L 163.25 83.0625 L 165.160156 82.59375 L 169.40625 82.59375 L 170.679688 82.828125 L 171.105469 80.480469 L 172.804688 76.492188 L 174.289062 74.378906 L 175.777344 72.972656 L 179.171875 71.09375 L 187.664062 68.75 L 191.0625 67.339844 L 194.671875 65.230469 L 197.429688 62.882812 L 199.554688 60.769531 L 201.886719 58.191406 L 203.160156 56.546875 L 203.375 57.015625 L 202.3125 63.117188 L 202.101562 64.761719 L 205.496094 64.761719 L 208.042969 64.054688 L 209.742188 63.117188 L 211.652344 61.003906 L 213.140625 57.71875 Z M 213.5625 55.140625 "/>
<path style=" stroke:none;fill-rule:nonzero;fill:rgb(1.568627%,3.921569%,7.058824%);fill-opacity:1;" d="M 213.5625 55.140625 L 213.988281 55.140625 L 214.839844 58.191406 L 215.050781 59.597656 L 215.050781 63.585938 L 213.988281 68.042969 L 213.140625 70.15625 L 214.199219 70.625 L 215.050781 71.09375 L 217.386719 71.09375 L 218.660156 70.15625 L 219.933594 67.339844 L 220.144531 64.523438 L 220.570312 65.230469 L 220.996094 68.042969 L 220.996094 72.269531 L 220.144531 76.257812 L 219.082031 79.542969 L 220.570312 80.011719 L 222.480469 80.011719 L 224.179688 79.074219 L 224.816406 78.132812 L 225.238281 78.132812 L 224.816406 81.183594 L 223.964844 84.46875 L 223.117188 86.816406 L 221.417969 90.570312 L 221.207031 91.507812 L 221.207031 94.558594 L 221.84375 97.609375 L 221.84375 101.597656 L 220.996094 103.945312 L 219.71875 105.820312 L 217.386719 108.636719 L 215.261719 110.75 L 212.078125 113.328125 L 208.257812 115.675781 L 205.074219 117.082031 L 204.011719 117.320312 L 203.800781 118.023438 L 203.800781 123.652344 L 204.222656 129.988281 L 204.4375 133.507812 L 204.011719 133.507812 L 204.011719 135.621094 L 202.738281 137.964844 L 200.613281 140.3125 L 197.640625 142.191406 L 196.582031 142.660156 L 195.09375 142.660156 L 194.035156 140.3125 L 192.761719 136.089844 L 192.121094 133.273438 L 191.910156 132.804688 L 191.484375 132.804688 L 191.699219 134.445312 L 190.210938 135.152344 L 184.90625 137.496094 L 180.871094 139.84375 L 177.6875 142.191406 L 175.5625 144.066406 L 174.503906 145.476562 L 174.714844 146.414062 L 173.230469 149.230469 L 171.105469 152.75 L 168.558594 157.207031 L 166.859375 160.023438 L 164.949219 163.074219 L 162.613281 166.359375 L 160.066406 169.40625 L 158.792969 170.816406 L 158.367188 170.816406 L 158.15625 173.632812 L 157.945312 174.101562 L 157.308594 174.101562 L 157.308594 170.113281 L 156.882812 161.429688 L 156.035156 152.984375 L 155.183594 144.066406 L 154.761719 137.496094 L 154.761719 134.679688 L 155.609375 131.867188 L 156.671875 128.816406 L 156.882812 127.640625 L 157.09375 122.246094 L 157.730469 120.367188 L 157.519531 118.960938 L 156.671875 117.789062 L 154.761719 116.613281 L 152.210938 115.910156 L 151.363281 116.144531 L 150.726562 117.789062 L 152 119.898438 L 153.699219 121.308594 L 153.910156 122.246094 L 152.425781 124.359375 L 150.089844 127.171875 L 148.816406 128.582031 L 148.390625 128.582031 L 147.964844 129.519531 L 147.542969 129.519531 L 147.328125 130.222656 L 145.632812 131.867188 L 144.570312 133.039062 L 144.78125 133.976562 L 146.90625 136.324219 L 146.691406 138.671875 L 145.632812 148.996094 L 145.417969 151.808594 L 145.207031 158.613281 L 145.207031 163.542969 L 145.417969 171.753906 L 146.054688 178.558594 L 147.117188 182.78125 L 148.390625 185.363281 L 148.816406 186.300781 L 149.238281 186.300781 L 150.300781 187.476562 L 152 188.648438 L 153.273438 189.117188 L 156.246094 189.117188 L 159.855469 187.945312 L 163.464844 185.832031 L 165.585938 184.191406 L 168.132812 181.609375 L 169.832031 179.964844 L 171.53125 178.089844 L 173.441406 175.507812 L 175.777344 172.925781 L 175.988281 173.632812 L 174.078125 176.210938 L 171.742188 179.027344 L 167.285156 183.957031 L 164.101562 186.535156 L 160.066406 188.882812 L 157.308594 189.820312 L 156.246094 190.054688 L 153.273438 190.054688 L 151.152344 189.351562 L 149.238281 187.945312 L 148.179688 186.769531 L 146.691406 184.425781 L 145.632812 181.140625 L 144.996094 177.855469 L 144.359375 170.582031 L 144.144531 163.074219 L 144.144531 159.082031 L 144.359375 152.28125 L 144.78125 146.648438 L 145.632812 139.375 L 145.84375 136.792969 L 144.359375 134.917969 L 143.933594 134.210938 L 142.871094 134.210938 L 142.445312 135.152344 L 140.75 136.792969 L 139.6875 137.496094 L 137.5625 137.027344 L 135.867188 135.386719 L 135.015625 133.507812 L 135.015625 131.867188 L 135.867188 130.457031 L 137.5625 128.582031 L 139.261719 126.9375 L 139.6875 126.9375 L 140.113281 125.0625 L 140.324219 122.246094 L 141.171875 119.429688 L 142.445312 117.082031 L 144.144531 114.503906 L 145.207031 113.328125 L 146.269531 112.625 L 147.328125 111.6875 L 149.027344 111.453125 L 150.089844 111.921875 L 151.152344 113.09375 L 152 112.625 L 154.546875 109.808594 L 152.636719 105.351562 L 151.789062 101.597656 L 151.789062 98.3125 L 152.425781 94.558594 L 153.910156 90.804688 L 156.035156 87.753906 L 157.730469 86.113281 L 160.492188 84.234375 L 163.25 83.0625 L 165.160156 82.59375 L 169.40625 82.59375 L 170.679688 82.828125 L 171.105469 80.480469 L 172.804688 76.492188 L 174.289062 74.378906 L 175.777344 72.972656 L 179.171875 71.09375 L 187.664062 68.75 L 191.0625 67.339844 L 194.671875 65.230469 L 197.429688 62.882812 L 199.554688 60.769531 L 201.886719 58.191406 L 203.160156 56.546875 L 203.375 57.015625 L 202.3125 63.117188 L 202.101562 64.761719 L 205.496094 64.761719 L 208.042969 64.054688 L 209.742188 63.117188 L 211.652344 61.003906 L 213.140625 57.71875 Z M 213.5625 55.140625 "/>
<path style=" stroke:none;fill-rule:nonzero;fill:rgb(99.215686%,99.215686%,99.215686%);fill-opacity:1;" d="M 228 219.152344 L 228.425781 219.621094 L 228 226.660156 L 227.363281 234.167969 L 226.515625 239.800781 L 225.238281 245.195312 L 223.964844 248.714844 L 222.054688 252 L 219.296875 255.519531 L 216.113281 258.570312 L 213.351562 261.152344 L 209.957031 264.199219 L 207.832031 266.3125 L 205.074219 268.660156 L 202.949219 270.769531 L 199.976562 273.351562 L 197.21875 275.933594 L 195.730469 277.105469 L 195.730469 277.808594 L 197.429688 276.402344 L 202.101562 272.179688 L 204.222656 270.300781 L 206.984375 267.71875 L 209.320312 265.609375 L 212.078125 263.027344 L 214.414062 260.917969 L 217.386719 258.101562 L 219.933594 255.519531 L 220.996094 254.347656 L 222.691406 252.234375 L 223.753906 252.46875 L 226.089844 254.347656 L 227.574219 255.753906 L 229.273438 258.335938 L 230.761719 261.855469 L 230.972656 262.558594 L 230.972656 264.4375 L 229.484375 266.3125 L 225.453125 270.769531 L 223.328125 272.648438 L 220.996094 274.523438 L 215.898438 278.28125 L 211.441406 281.328125 L 204.648438 285.789062 L 200.828125 288.367188 L 196.15625 291.417969 L 192.335938 293.765625 L 188.300781 296.113281 L 183.207031 298.457031 L 179.597656 299.632812 L 178.113281 300.101562 L 176.414062 300.335938 L 171.53125 300.335938 L 167.921875 299.398438 L 165.375 297.988281 L 162.828125 295.40625 L 161.339844 293.0625 L 160.28125 290.480469 L 159.640625 287.664062 L 159.429688 282.738281 L 159.855469 278.042969 L 161.128906 272.882812 L 162.828125 268.425781 L 164.738281 264.4375 L 166.859375 260.917969 L 169.621094 256.925781 L 172.378906 253.40625 L 174.714844 250.59375 L 177.476562 247.542969 L 179.808594 245.429688 L 182.359375 242.847656 L 184.691406 240.738281 L 187.453125 238.15625 L 193.820312 232.523438 L 194.246094 232.523438 L 194.035156 231.351562 L 192.335938 230.179688 L 191.0625 229.945312 L 191.484375 228.769531 L 193.820312 226.191406 L 195.09375 225.484375 L 197.855469 225.484375 L 202.3125 225.957031 L 208.257812 225.957031 L 212.925781 225.25 L 218.234375 223.84375 L 223.328125 221.730469 L 226.726562 219.855469 Z M 228 219.152344 "/>
<path style=" stroke:none;fill-rule:nonzero;fill:rgb(99.215686%,99.215686%,99.215686%);fill-opacity:1;" d="M 220.570312 146.648438 L 223.542969 146.648438 L 225.453125 147.585938 L 227.152344 149.230469 L 228.425781 151.339844 L 229.484375 154.15625 L 230.121094 156.972656 L 230.972656 168.46875 L 230.972656 190.761719 L 230.546875 196.15625 L 229.910156 200.378906 L 228.847656 203.664062 L 227.363281 206.480469 L 225.664062 208.59375 L 223.117188 210.703125 L 218.660156 213.753906 L 214.839844 216.101562 L 211.652344 217.976562 L 206.558594 220.558594 L 199.128906 223.609375 L 194.035156 225.484375 L 191.699219 227.597656 L 188.300781 231.117188 L 186.601562 232.761719 L 183.84375 235.574219 L 181.507812 238.15625 L 179.597656 239.09375 L 177.476562 238.859375 L 174.714844 237.921875 L 174.714844 237.21875 L 177.261719 236.28125 L 179.808594 236.28125 L 181.933594 233.230469 L 184.691406 230.179688 L 185.964844 228.066406 L 184.90625 228.769531 L 182.570312 231.585938 L 180.234375 233.933594 L 177.261719 235.574219 L 174.503906 236.515625 L 171.320312 236.515625 L 170.894531 235.808594 L 171.742188 234.871094 L 176.839844 232.289062 L 178.960938 230.882812 L 180.660156 228.300781 L 182.144531 225.015625 L 184.269531 220.792969 L 184.90625 219.855469 L 183.84375 218.445312 L 181.71875 217.273438 L 179.597656 216.570312 L 178.324219 215.632812 L 178.113281 214.457031 L 178.75 213.753906 L 181.507812 213.753906 L 185.964844 214.925781 L 191.484375 216.335938 L 192.761719 216.335938 L 198.066406 213.285156 L 203.160156 209.53125 L 206.132812 206.949219 L 208.894531 204.132812 L 211.441406 201.320312 L 212.714844 199.675781 L 213.140625 199.675781 L 213.5625 198.738281 L 213.988281 198.738281 L 214.414062 197.800781 L 217.808594 194.984375 L 218.023438 194.515625 L 216.960938 194.75 L 216.960938 192.167969 L 217.171875 188.648438 L 217.171875 176.917969 L 216.535156 160.492188 L 216.535156 156.035156 L 216.960938 152.042969 L 217.597656 149.464844 L 218.445312 148.054688 L 219.507812 147.117188 Z M 220.570312 146.648438 "/>
<path style=" stroke:none;fill-rule:nonzero;fill:rgb(2.745098%,21.176471%,42.352941%);fill-opacity:1;" d="M 213.5625 55.140625 L 213.988281 55.140625 L 214.839844 58.191406 L 215.050781 59.597656 L 215.050781 63.585938 L 213.988281 68.042969 L 213.140625 70.15625 L 214.199219 70.625 L 215.050781 71.09375 L 217.386719 71.09375 L 218.660156 70.15625 L 219.933594 67.339844 L 220.144531 64.523438 L 220.570312 65.230469 L 220.996094 68.042969 L 220.996094 72.269531 L 220.144531 76.257812 L 219.082031 79.542969 L 220.570312 80.011719 L 222.480469 80.011719 L 224.179688 79.074219 L 224.816406 78.132812 L 225.238281 78.132812 L 224.816406 81.183594 L 223.964844 84.46875 L 223.117188 86.816406 L 221.417969 90.570312 L 221.207031 91.507812 L 221.207031 94.558594 L 221.84375 97.609375 L 221.84375 101.597656 L 220.996094 103.945312 L 219.71875 105.820312 L 217.386719 108.636719 L 215.261719 110.75 L 212.078125 113.328125 L 208.257812 115.675781 L 205.074219 117.082031 L 204.011719 117.320312 L 203.585938 118.726562 L 203.375 118.726562 L 203.375 116.847656 L 202.738281 117.082031 L 202.738281 116.613281 L 203.375 116.378906 L 203.585938 114.269531 L 203.800781 113.800781 L 203.160156 113.5625 L 203.160156 112.859375 L 204.4375 113.328125 L 206.984375 113.328125 L 209.105469 112.15625 L 210.59375 110.515625 L 211.867188 107.699219 L 212.289062 105.585938 L 212.289062 103.945312 L 211.652344 102.300781 L 210.59375 101.363281 L 209.320312 100.894531 L 207.621094 100.894531 L 205.496094 101.832031 L 204.222656 102.769531 L 203.375 102.535156 L 201.675781 95.496094 L 200.613281 91.273438 L 199.976562 89.867188 L 197.21875 87.988281 L 192.546875 84.703125 L 190.636719 83.53125 L 188.515625 83.0625 L 185.753906 83.0625 L 182.144531 83.765625 L 179.808594 84.703125 L 177.261719 86.113281 L 176.414062 86.113281 L 174.289062 84.703125 L 172.378906 83.765625 L 170.042969 83.0625 L 170.679688 82.828125 L 171.105469 80.480469 L 172.804688 76.492188 L 174.289062 74.378906 L 175.777344 72.972656 L 179.171875 71.09375 L 187.664062 68.75 L 191.0625 67.339844 L 194.671875 65.230469 L 197.429688 62.882812 L 199.554688 60.769531 L 201.886719 58.191406 L 203.160156 56.546875 L 203.375 57.015625 L 202.3125 63.117188 L 202.101562 64.761719 L 205.496094 64.761719 L 208.042969 64.054688 L 209.742188 63.117188 L 211.652344 61.003906 L 213.140625 57.71875 Z M 213.5625 55.140625 "/>
<path style=" stroke:none;fill-rule:nonzero;fill:rgb(99.215686%,99.215686%,99.215686%);fill-opacity:1;" d="M 185.753906 82.828125 L 188.515625 82.828125 L 190.636719 83.296875 L 192.972656 84.703125 L 200.191406 89.867188 L 201.039062 91.742188 L 203.375 101.832031 L 203.585938 102.535156 L 204.4375 102.300781 L 206.769531 100.894531 L 207.621094 100.660156 L 209.320312 100.660156 L 211.015625 101.363281 L 212.289062 103.003906 L 212.503906 103.945312 L 212.503906 105.585938 L 211.867188 108.167969 L 210.804688 110.515625 L 209.105469 112.390625 L 206.984375 113.5625 L 204.4375 113.5625 L 203.160156 112.859375 L 203.160156 114.269531 L 201.886719 118.257812 L 200.402344 121.308594 L 198.703125 123.886719 L 196.367188 126.703125 L 194.246094 128.816406 L 191.273438 130.925781 L 188.726562 132.335938 L 184.90625 133.742188 L 182.78125 134.210938 L 180.445312 134.210938 L 177.898438 132.804688 L 175.140625 129.988281 L 173.015625 126.703125 L 171.320312 123.183594 L 169.832031 118.257812 L 169.621094 116.847656 L 169.832031 116.378906 L 173.015625 115.441406 L 175.140625 114.269531 L 176.414062 114.503906 L 177.6875 112.390625 L 180.023438 109.339844 L 181.296875 106.996094 L 182.359375 103.238281 L 182.570312 101.832031 L 182.570312 97.609375 L 181.933594 94.324219 L 181.082031 92.210938 L 179.597656 89.398438 L 177.261719 86.582031 L 177.261719 85.878906 L 180.660156 84 L 184.269531 83.0625 Z M 185.753906 82.828125 "/>
<path style=" stroke:none;fill-rule:nonzero;fill:rgb(98.823529%,98.823529%,98.823529%);fill-opacity:1;" d="M 190.636719 230.179688 L 192.546875 230.882812 L 193.398438 231.820312 L 193.398438 232.289062 L 192.121094 233.230469 L 188.726562 236.28125 L 186.601562 238.15625 L 183.84375 240.738281 L 181.507812 242.847656 L 178.75 245.664062 L 177.050781 247.308594 L 171.105469 253.878906 L 169.195312 256.457031 L 167.496094 258.804688 L 164.523438 263.730469 L 162.402344 267.957031 L 160.917969 271.710938 L 159.640625 276.636719 L 159.003906 281.09375 L 159.003906 287.429688 L 159.855469 291.183594 L 159.855469 291.886719 L 157.09375 292.59375 L 154.761719 292.828125 L 151.789062 292.828125 L 148.601562 292.359375 L 145.84375 291.417969 L 143.933594 290.011719 L 142.234375 287.898438 L 141.171875 285.554688 L 140.324219 281.800781 L 140.113281 279.6875 L 140.113281 275.933594 L 140.75 271.238281 L 141.386719 268.425781 L 142.871094 264.671875 L 144.570312 261.621094 L 145.84375 259.742188 L 147.753906 257.160156 L 150.089844 254.347656 L 152 252.234375 L 153.699219 250.59375 L 155.820312 248.480469 L 158.15625 246.367188 L 161.128906 243.320312 L 163.464844 241.207031 L 165.585938 239.09375 L 167.921875 236.984375 L 169.621094 235.574219 L 170.257812 235.808594 L 170.46875 236.984375 L 172.59375 237.453125 L 176.839844 239.328125 L 179.171875 239.800781 L 181.296875 238.859375 L 183.632812 236.984375 L 187.238281 232.996094 L 188.300781 231.585938 L 188.300781 232.289062 L 186.601562 235.339844 L 184.691406 237.453125 L 183.632812 237.921875 L 184.480469 238.15625 L 185.964844 237.21875 L 187.453125 235.339844 L 189.789062 231.351562 Z M 190.636719 230.179688 "/>
<path style=" stroke:none;fill-rule:nonzero;fill:rgb(99.215686%,99.215686%,99.215686%);fill-opacity:1;" d="M 159.429688 114.738281 L 160.703125 114.972656 L 162.828125 115.910156 L 164.738281 116.378906 L 168.558594 116.613281 L 168.984375 116.847656 L 170.257812 122.011719 L 171.742188 125.765625 L 173.652344 129.050781 L 175.5625 131.398438 L 177.261719 133.039062 L 179.171875 134.210938 L 181.082031 134.917969 L 183.207031 134.679688 L 187.238281 133.507812 L 190.425781 132.101562 L 191.0625 131.867188 L 191.699219 133.273438 L 191.699219 134.445312 L 190.210938 135.152344 L 184.90625 137.496094 L 180.871094 139.84375 L 177.6875 142.191406 L 175.5625 144.066406 L 173.867188 146.648438 L 170.46875 152.28125 L 167.921875 156.738281 L 164.738281 161.898438 L 162.828125 164.714844 L 160.917969 167.0625 L 158.582031 169.878906 L 158.15625 169.171875 L 157.730469 161.664062 L 156.035156 144.535156 L 155.609375 137.964844 L 155.609375 133.976562 L 157.308594 129.285156 L 157.730469 126.9375 L 157.945312 122.246094 L 158.367188 120.601562 L 158.15625 118.726562 L 157.308594 117.082031 L 157.519531 116.378906 L 158.792969 115.441406 L 159.429688 115.207031 Z M 159.429688 114.738281 "/>
<path style=" stroke:none;fill-rule:nonzero;fill:rgb(1.568627%,3.137255%,5.098039%);fill-opacity:1;" d="M 178.960938 212.816406 L 182.144531 213.050781 L 183.84375 213.753906 L 185.117188 214.457031 L 184.269531 214.691406 L 181.507812 213.988281 L 178.324219 213.988281 L 178.535156 215.632812 L 180.234375 216.570312 L 183.207031 217.742188 L 184.90625 219.386719 L 185.117188 220.089844 L 183.84375 221.964844 L 182.359375 225.015625 L 180.234375 229.476562 L 178.75 231.351562 L 174.714844 233.699219 L 171.320312 235.339844 L 171.105469 236.042969 L 171.320312 236.28125 L 174.503906 236.28125 L 177.261719 235.339844 L 180.234375 233.699219 L 182.996094 230.882812 L 185.328125 228.066406 L 185.964844 228.066406 L 185.542969 229.003906 L 184.269531 230.882812 L 181.71875 233.699219 L 179.808594 236.515625 L 177.261719 236.515625 L 174.714844 237.453125 L 175.351562 237.921875 L 178.324219 238.859375 L 180.234375 238.625 L 181.933594 237.453125 L 185.542969 233.464844 L 187.238281 231.820312 L 190 229.003906 L 192.121094 226.894531 L 194.035156 225.25 L 196.367188 224.3125 L 197.429688 224.3125 L 196.367188 225.25 L 194.246094 226.191406 L 192.546875 227.832031 L 191.273438 229.476562 L 191.0625 229.945312 L 192.335938 229.945312 L 194.457031 231.585938 L 194.246094 232.523438 L 191.484375 234.871094 L 184.480469 241.207031 L 181.507812 244.023438 L 179.808594 245.664062 L 176.839844 248.480469 L 173.230469 252.46875 L 171.320312 255.050781 L 169.40625 257.398438 L 166.4375 261.855469 L 164.523438 265.375 L 162.402344 269.832031 L 160.917969 274.289062 L 160.066406 278.042969 L 159.640625 282.738281 L 159.855469 287.664062 L 160.703125 291.183594 L 162.402344 294.46875 L 164.3125 296.816406 L 166.4375 298.457031 L 169.40625 299.632812 L 171.53125 300.101562 L 176.414062 300.101562 L 178.75 299.632812 L 181.933594 298.691406 L 186.390625 296.816406 L 190.425781 294.703125 L 195.09375 291.886719 L 201.25 287.898438 L 207.195312 283.910156 L 213.5625 279.6875 L 218.234375 276.402344 L 222.480469 273.117188 L 224.816406 271.003906 L 226.9375 268.894531 L 230.546875 264.90625 L 230.761719 264.4375 L 230.761719 262.558594 L 229.273438 258.804688 L 228 256.691406 L 226.726562 255.050781 L 223.542969 252.46875 L 222.480469 252.703125 L 220.570312 255.285156 L 218.871094 256.925781 L 216.75 259.039062 L 214.414062 261.152344 L 211.441406 263.964844 L 208.679688 266.546875 L 206.558594 268.425781 L 203.585938 271.238281 L 201.675781 272.882812 L 197.003906 277.105469 L 195.519531 278.042969 L 195.308594 277.574219 L 196.15625 276.402344 L 198.492188 274.523438 L 201.464844 271.710938 L 203.585938 269.832031 L 206.347656 267.25 L 208.46875 265.375 L 210.59375 263.261719 L 213.5625 260.679688 L 216.75 257.632812 L 219.507812 255.050781 L 222.054688 251.765625 L 223.964844 248.246094 L 225.453125 243.554688 L 226.515625 238.390625 L 227.363281 232.523438 L 227.789062 228.535156 L 228.425781 228.535156 L 228.425781 231.820312 L 227.152344 240.269531 L 225.664062 246.132812 L 224.816406 248.714844 L 226.089844 249.652344 L 227.363281 249.417969 L 229.273438 247.777344 L 231.183594 243.320312 L 232.246094 241.910156 L 233.308594 241.441406 L 235.003906 241.441406 L 238.191406 242.378906 L 243.285156 244.023438 L 247.53125 244.960938 L 253.050781 245.664062 L 260.90625 245.898438 L 261.753906 247.308594 L 261.753906 249.183594 L 260.691406 250.359375 L 258.78125 251.765625 L 256.023438 253.171875 L 251.5625 255.050781 L 247.742188 256.222656 L 243.496094 256.925781 L 240.738281 256.925781 L 236.28125 256.457031 L 234.792969 259.273438 L 232.882812 260.917969 L 231.820312 261.386719 L 231.609375 262.324219 L 231.820312 264.671875 L 229.273438 267.71875 L 226.515625 270.769531 L 224.179688 272.882812 L 221.417969 275.230469 L 217.597656 278.042969 L 213.5625 280.859375 L 206.132812 285.789062 L 202.523438 288.132812 L 199.339844 290.246094 L 195.308594 292.828125 L 190 296.113281 L 185.117188 298.457031 L 181.71875 299.867188 L 177.261719 301.039062 L 175.5625 301.273438 L 172.167969 301.273438 L 168.769531 300.570312 L 166.011719 299.398438 L 163.675781 297.753906 L 161.976562 295.878906 L 160.492188 293.296875 L 160.066406 292.828125 L 154.761719 293.53125 L 150.515625 293.53125 L 146.691406 292.59375 L 143.71875 290.949219 L 142.234375 289.308594 L 140.75 286.726562 L 139.6875 282.738281 L 139.476562 281.09375 L 139.476562 274.761719 L 140.324219 269.597656 L 141.386719 266.078125 L 142.871094 262.792969 L 144.570312 260.210938 L 146.691406 257.160156 L 153.273438 249.886719 L 155.609375 247.777344 L 157.09375 246.132812 L 159.429688 244.023438 L 161.554688 241.910156 L 163.25 240.269531 L 166.222656 237.453125 L 168.347656 235.574219 L 173.015625 231.351562 L 175.988281 228.769531 L 178.113281 226.894531 L 180.660156 224.78125 L 182.144531 223.375 L 183.632812 220.558594 L 184.054688 219.855469 L 182.359375 218.445312 L 178.324219 216.570312 L 177.476562 215.632812 L 177.6875 213.753906 L 178.324219 213.050781 Z M 190.636719 230.179688 L 189.789062 231.351562 L 186.816406 236.28125 L 185.117188 237.921875 L 184.054688 238.15625 L 183.632812 237.921875 L 184.90625 237.21875 L 186.816406 235.105469 L 188.300781 232.289062 L 188.300781 231.585938 L 185.328125 235.105469 L 183.207031 237.453125 L 181.082031 239.09375 L 179.171875 239.800781 L 175.988281 239.09375 L 173.441406 237.6875 L 170.894531 237.21875 L 170.257812 236.515625 L 170.042969 235.574219 L 168.984375 236.042969 L 166.011719 238.859375 L 164.3125 240.503906 L 161.554688 243.082031 L 159.21875 245.195312 L 156.246094 248.246094 L 154.546875 249.886719 L 152.425781 252 L 150.726562 253.640625 L 148.390625 256.222656 L 146.480469 258.804688 L 144.996094 260.917969 L 142.871094 264.671875 L 141.808594 267.25 L 140.960938 270.066406 L 140.324219 273.820312 L 140.113281 275.933594 L 140.113281 279.6875 L 140.75 284.144531 L 141.808594 287.195312 L 143.296875 289.308594 L 144.996094 290.949219 L 146.90625 291.886719 L 149.664062 292.59375 L 151.789062 292.828125 L 154.761719 292.828125 L 158.15625 292.359375 L 159.855469 291.886719 L 159.429688 289.542969 L 159.003906 287.429688 L 159.003906 281.09375 L 159.640625 276.636719 L 160.492188 273.117188 L 161.976562 269.128906 L 163.675781 265.375 L 165.585938 261.855469 L 167.710938 258.570312 L 169.195312 256.457031 L 171.957031 252.9375 L 178.324219 245.898438 L 180.660156 243.789062 L 183.417969 240.972656 L 186.390625 238.390625 L 188.300781 236.515625 L 191.0625 234.167969 L 192.972656 232.523438 L 193.398438 232.289062 L 192.972656 231.351562 L 191.910156 230.648438 Z M 190.636719 230.179688 "/>
<path style=" stroke:none;fill-rule:nonzero;fill:rgb(99.215686%,99.215686%,99.215686%);fill-opacity:1;" d="M 102.113281 90.804688 L 121.003906 91.039062 L 120.582031 95.964844 L 120.792969 96.4375 L 121.855469 96.671875 L 126.949219 99.25 L 132.894531 102.300781 L 133.53125 102.535156 L 133.742188 103.476562 L 130.558594 109.339844 L 128.4375 113.09375 L 125.675781 118.023438 L 123.128906 122.480469 L 121.640625 125.0625 L 119.519531 128.816406 L 116.546875 133.976562 L 114.636719 137.261719 L 114 138.199219 L 113.574219 138.199219 L 114.847656 129.519531 L 116.546875 119.195312 L 118.882812 106.523438 L 120.367188 98.78125 L 120.15625 98.546875 L 118.882812 103.945312 L 116.546875 115.910156 L 114 131.160156 L 113.363281 135.621094 L 112.9375 137.027344 L 112.515625 136.324219 L 111.453125 131.867188 L 108.480469 118.257812 L 106.359375 108.402344 L 104.023438 98.078125 L 103.808594 96.4375 L 106.78125 96.671875 L 119.730469 96.90625 L 119.945312 96.199219 L 103.597656 95.964844 L 102.75 93.621094 Z M 102.113281 90.804688 "/>
<path style=" stroke:none;fill-rule:nonzero;fill:rgb(99.215686%,99.215686%,99.215686%);fill-opacity:1;" d="M 93.832031 89.398438 L 95.320312 89.398438 L 101.050781 90.804688 L 101.6875 91.742188 L 103.597656 98.546875 L 107.417969 115.910156 L 109.964844 127.640625 L 111.878906 135.855469 L 112.089844 137.496094 L 111.027344 136.558594 L 109.117188 133.742188 L 105.71875 128.816406 L 103.597656 125.765625 L 100.839844 121.542969 L 97.867188 117.320312 L 95.742188 114.035156 L 92.984375 110.042969 L 90.222656 105.820312 L 88.738281 103.476562 L 88.738281 103.003906 L 94.46875 100.191406 L 100.414062 97.375 L 101.050781 96.90625 L 99.5625 97.140625 L 90.011719 101.597656 L 88.3125 102.535156 L 88.738281 101.128906 L 91.710938 94.324219 L 93.621094 89.632812 Z M 93.832031 89.398438 "/>
<path style=" stroke:none;fill-rule:nonzero;fill:rgb(1.568627%,5.882353%,10.588235%);fill-opacity:1;" d="M 107.84375 86.816406 L 126.949219 86.816406 L 128.222656 87.285156 L 130.132812 88.925781 L 131.832031 93.386719 L 134.378906 100.660156 L 135.015625 102.535156 L 134.804688 103.476562 L 133.320312 106.054688 L 130.558594 110.984375 L 127.585938 116.378906 L 121.640625 126.703125 L 119.09375 131.160156 L 116.972656 134.917969 L 114 139.84375 L 113.152344 140.78125 L 110.816406 137.496094 L 108.054688 133.742188 L 106.144531 130.925781 L 102.75 126 L 99.777344 121.542969 L 97.652344 118.492188 L 91.710938 109.574219 L 88.523438 104.882812 L 87.464844 103.238281 L 87.675781 101.832031 L 90.222656 95.496094 L 92.347656 91.039062 L 93.195312 89.160156 L 94.042969 88.222656 L 96.167969 87.050781 Z M 93.832031 89.398438 L 92.347656 92.679688 L 90.011719 98.078125 L 88.3125 102.066406 L 88.523438 102.535156 L 91.496094 100.894531 L 98.078125 97.84375 L 100.199219 96.90625 L 101.050781 96.90625 L 98.503906 98.3125 L 89.160156 102.769531 L 88.738281 103.003906 L 89.160156 104.179688 L 91.921875 108.402344 L 95.105469 113.09375 L 98.078125 117.554688 L 100.839844 121.542969 L 103.808594 126 L 105.933594 129.050781 L 109.328125 133.976562 L 111.453125 137.027344 L 112.089844 137.496094 L 111.878906 135.855469 L 108.480469 120.839844 L 104.660156 103.476562 L 103.171875 96.90625 L 101.476562 91.273438 L 100.414062 90.570312 L 95.320312 89.398438 Z M 102.113281 90.804688 L 103.386719 95.730469 L 103.597656 95.964844 L 119.945312 96.199219 L 119.730469 96.90625 L 106.78125 96.671875 L 103.808594 96.4375 L 104.023438 98.078125 L 105.933594 106.523438 L 109.542969 122.949219 L 112.089844 134.917969 L 112.726562 137.027344 L 113.152344 136.558594 L 113.789062 133.039062 L 115.0625 124.59375 L 117.398438 111.453125 L 119.308594 101.832031 L 120.15625 98.546875 L 120.367188 98.78125 L 117.820312 112.15625 L 115.484375 125.296875 L 113.574219 137.730469 L 113.574219 138.199219 L 114.425781 137.730469 L 116.335938 134.210938 L 118.457031 130.691406 L 120.582031 126.9375 L 122.066406 124.359375 L 125.25 118.726562 L 127.800781 114.269531 L 129.710938 110.75 L 132.46875 105.820312 L 133.742188 103.476562 L 133.53125 102.535156 L 127.375 99.484375 L 123.339844 97.375 L 121.429688 96.4375 L 120.792969 96.4375 L 120.582031 95.730469 L 120.792969 92.445312 L 121.003906 91.039062 Z M 102.113281 90.804688 "/>
<path style=" stroke:none;fill-rule:nonzero;fill:rgb(99.215686%,99.215686%,99.215686%);fill-opacity:1;" d="M 166.011719 85.40625 L 168.347656 85.40625 L 170.257812 85.878906 L 170.257812 89.160156 L 168.984375 90.804688 L 168.347656 92.210938 L 168.347656 92.679688 L 168.769531 92.917969 L 169.195312 91.507812 L 170.257812 90.335938 L 170.679688 90.570312 L 170.679688 92.679688 L 168.769531 94.089844 L 163.675781 97.375 L 160.917969 99.25 L 158.367188 100.894531 L 158.15625 101.363281 L 159.855469 100.660156 L 165.800781 96.671875 L 169.621094 94.324219 L 170.257812 94.558594 L 169.40625 99.25 L 168.558594 100.425781 L 166.011719 102.300781 L 161.765625 105.585938 L 159.21875 107.699219 L 158.792969 108.402344 L 161.765625 106.289062 L 165.375 103.476562 L 167.921875 101.597656 L 168.347656 101.128906 L 168.984375 101.128906 L 168.769531 103.476562 L 168.347656 108.636719 L 168.347656 113.800781 L 165.160156 113.800781 L 162.613281 113.09375 L 159.640625 111.21875 L 157.308594 108.871094 L 155.609375 105.820312 L 154.546875 102.300781 L 154.335938 100.894531 L 154.335938 98.78125 L 154.761719 95.964844 L 155.820312 92.917969 L 157.519531 90.335938 L 159.429688 88.222656 L 162.402344 86.347656 L 164.738281 85.640625 Z M 166.011719 85.40625 "/>
<path style=" stroke:none;fill-rule:nonzero;fill:rgb(2.745098%,20.784314%,41.568627%);fill-opacity:1;" d="M 225.664062 145.945312 L 226.726562 146.414062 L 229.273438 151.339844 L 230.121094 153.6875 L 230.761719 156.503906 L 231.398438 164.246094 L 231.609375 167.296875 L 231.820312 174.335938 L 231.820312 189.351562 L 231.398438 195.6875 L 230.761719 200.144531 L 229.910156 202.960938 L 228.636719 206.011719 L 228.847656 214.925781 L 229.0625 218.679688 L 229.0625 223.84375 L 228.636719 229.476562 L 227.789062 228.535156 L 228 224.078125 L 228.210938 219.386719 L 224.816406 221.261719 L 219.507812 223.609375 L 215.050781 225.015625 L 210.378906 225.957031 L 208.257812 226.191406 L 202.3125 226.191406 L 195.519531 225.484375 L 196.367188 225.25 L 196.582031 224.78125 L 197.21875 224.078125 L 204.4375 221.261719 L 209.320312 218.917969 L 212.714844 217.039062 L 218.023438 213.988281 L 222.480469 210.9375 L 224.816406 209.0625 L 226.089844 207.886719 L 228 205.074219 L 229.273438 202.023438 L 230.121094 197.800781 L 230.546875 194.28125 L 230.761719 190.761719 L 230.761719 168.46875 L 229.910156 156.972656 L 229.0625 153.453125 L 227.363281 149.699219 L 225.664062 147.820312 L 226.089844 147.351562 L 225.664062 146.648438 Z M 225.664062 145.945312 "/>
<path style=" stroke:none;fill-rule:nonzero;fill:rgb(99.215686%,99.215686%,99.215686%);fill-opacity:1;" d="M 174.289062 88.222656 L 175.351562 88.457031 L 177.050781 90.101562 L 178.324219 91.976562 L 179.171875 93.855469 L 180.023438 96.671875 L 180.234375 97.84375 L 180.234375 101.128906 L 179.597656 104.414062 L 178.113281 107.699219 L 176.839844 109.574219 L 176.625 109.574219 L 176.839844 105.820312 L 178.113281 96.199219 L 178.324219 94.089844 L 177.898438 94.324219 L 176.414062 105.117188 L 175.988281 109.808594 L 175.351562 110.984375 L 173.230469 112.390625 L 170.46875 113.5625 L 169.195312 113.800781 L 168.984375 113.5625 L 168.984375 106.054688 L 169.621094 100.425781 L 170.679688 99.484375 L 172.167969 98.546875 L 172.167969 102.300781 L 172.59375 104.179688 L 173.015625 104.179688 L 173.230469 103.238281 L 173.230469 96.90625 L 171.320312 98.3125 L 170.46875 99.015625 L 170.042969 99.015625 L 170.46875 96.199219 L 171.105469 93.386719 L 174.289062 91.273438 L 174.925781 91.507812 L 175.351562 92.445312 L 175.988281 92.679688 L 175.351562 91.273438 L 174.503906 90.101562 L 173.867188 89.632812 L 174.078125 88.457031 Z M 174.289062 88.222656 "/>
<path style=" stroke:none;fill-rule:nonzero;fill:rgb(1.960784%,5.882353%,10.588235%);fill-opacity:1;" d="M 178.960938 212.816406 L 182.144531 213.050781 L 183.84375 213.753906 L 185.117188 214.457031 L 184.269531 214.691406 L 181.507812 213.988281 L 178.324219 213.988281 L 178.535156 215.632812 L 180.234375 216.570312 L 183.207031 217.742188 L 184.90625 219.386719 L 185.117188 220.089844 L 183.84375 221.964844 L 182.359375 225.015625 L 180.234375 229.476562 L 178.75 231.351562 L 174.714844 233.699219 L 171.320312 235.339844 L 171.105469 236.042969 L 171.320312 236.28125 L 174.503906 236.28125 L 177.261719 235.339844 L 180.234375 233.699219 L 182.996094 230.882812 L 185.328125 228.066406 L 185.964844 228.066406 L 185.542969 229.003906 L 184.269531 230.882812 L 181.71875 233.699219 L 179.808594 236.515625 L 177.261719 236.515625 L 174.714844 237.453125 L 175.351562 237.921875 L 178.324219 238.859375 L 180.234375 238.625 L 181.933594 237.453125 L 185.542969 233.464844 L 187.238281 231.820312 L 190 229.003906 L 190.636719 229.003906 L 188.726562 231.117188 L 186.816406 233.699219 L 183.207031 237.6875 L 181.082031 239.328125 L 179.171875 240.035156 L 175.988281 239.328125 L 173.441406 237.921875 L 170.894531 237.453125 L 170.042969 236.515625 L 170.042969 235.808594 L 168.984375 236.28125 L 166.011719 239.09375 L 164.3125 240.738281 L 161.554688 243.320312 L 159.21875 245.429688 L 156.246094 248.480469 L 154.546875 250.121094 L 152.425781 252.234375 L 150.726562 253.878906 L 148.601562 256.222656 L 146.691406 258.804688 L 145.207031 260.917969 L 143.082031 264.671875 L 142.023438 267.25 L 141.171875 270.066406 L 140.535156 273.820312 L 140.324219 275.933594 L 140.324219 279.6875 L 140.960938 284.144531 L 142.023438 287.195312 L 143.507812 289.308594 L 145.417969 290.949219 L 147.753906 291.886719 L 149.664062 292.359375 L 151.789062 292.59375 L 154.761719 292.59375 L 159.855469 291.886719 L 159.855469 292.59375 L 158.15625 293.0625 L 154.761719 293.53125 L 150.515625 293.53125 L 146.691406 292.59375 L 143.71875 290.949219 L 142.234375 289.308594 L 140.75 286.726562 L 139.6875 282.738281 L 139.476562 281.09375 L 139.476562 274.761719 L 140.324219 269.597656 L 141.386719 266.078125 L 142.871094 262.792969 L 144.570312 260.210938 L 146.691406 257.160156 L 153.273438 249.886719 L 155.609375 247.777344 L 157.09375 246.132812 L 159.429688 244.023438 L 161.554688 241.910156 L 163.25 240.269531 L 166.222656 237.453125 L 168.347656 235.574219 L 173.015625 231.351562 L 175.988281 228.769531 L 178.113281 226.894531 L 180.660156 224.78125 L 182.144531 223.375 L 183.632812 220.558594 L 184.054688 219.855469 L 182.359375 218.445312 L 178.324219 216.570312 L 177.476562 215.632812 L 177.6875 213.753906 L 178.324219 213.050781 Z M 178.960938 212.816406 "/>
<path style=" stroke:none;fill-rule:nonzero;fill:rgb(99.215686%,99.215686%,99.215686%);fill-opacity:1;" d="M 202.523438 118.023438 L 202.949219 118.257812 L 203.160156 126 L 203.585938 130.925781 L 204.011719 133.507812 L 204.011719 135.621094 L 202.738281 137.964844 L 200.613281 140.3125 L 197.640625 142.191406 L 196.582031 142.660156 L 195.09375 142.660156 L 194.035156 140.3125 L 192.761719 136.089844 L 192.121094 133.273438 L 192.121094 132.335938 L 195.09375 129.988281 L 198.492188 126.234375 L 200.613281 122.011719 L 201.886719 119.664062 Z M 202.523438 118.023438 "/>
<path style=" stroke:none;fill-rule:nonzero;fill:rgb(99.215686%,99.215686%,99.215686%);fill-opacity:1;" d="M 128.4375 89.398438 L 129.496094 89.632812 L 130.769531 92.679688 L 133.320312 99.957031 L 133.957031 102.066406 L 129.074219 99.71875 L 124.402344 97.140625 L 121.429688 95.964844 L 121.21875 95.730469 L 121.21875 93.855469 L 121.640625 91.039062 L 124.402344 90.335938 Z M 128.4375 89.398438 "/>
<path style=" stroke:none;fill-rule:nonzero;fill:rgb(99.215686%,99.215686%,99.215686%);fill-opacity:1;" d="M 150.515625 119.664062 L 151.363281 120.132812 L 152.847656 121.542969 L 152.636719 122.714844 L 151.152344 124.359375 L 149.664062 126.234375 L 146.269531 129.988281 L 144.570312 131.632812 L 142.660156 133.742188 L 140.75 135.386719 L 140.113281 135.386719 L 139.6875 133.273438 L 138.199219 131.632812 L 136.925781 130.925781 L 137.777344 129.519531 L 139.261719 128.113281 L 140.324219 126.9375 L 142.023438 125.53125 L 142.234375 125.0625 L 141.171875 125.0625 L 140.960938 124.59375 L 140.960938 122.714844 L 141.597656 122.949219 L 143.082031 124.828125 L 145.207031 126 L 146.269531 125.765625 L 147.753906 124.359375 L 148.816406 123.183594 L 149.664062 122.011719 Z M 150.515625 119.664062 "/>
<path style=" stroke:none;fill-rule:nonzero;fill:rgb(99.215686%,99.215686%,99.215686%);fill-opacity:1;" d="M 96.59375 87.753906 L 127.585938 87.753906 L 128.222656 88.222656 L 128.011719 88.925781 L 122.703125 90.101562 L 101.050781 90.101562 L 95.53125 88.925781 L 95.957031 87.988281 Z M 96.59375 87.753906 "/>
<path style=" stroke:none;fill-rule:nonzero;fill:rgb(1.568627%,5.882353%,11.372549%);fill-opacity:1;" d="M 154.761719 134.679688 L 155.398438 135.386719 L 155.820312 137.964844 L 156.457031 147.117188 L 157.945312 161.664062 L 158.367188 169.171875 L 158.582031 169.640625 L 161.976562 165.652344 L 164.101562 162.601562 L 169.195312 154.15625 L 171.742188 149.699219 L 173.652344 146.648438 L 174.289062 145.710938 L 174.714844 145.710938 L 174.503906 146.648438 L 173.652344 148.523438 L 171.957031 151.339844 L 169.40625 155.800781 L 166.859375 160.023438 L 164.949219 163.074219 L 162.613281 166.359375 L 160.066406 169.40625 L 158.792969 170.816406 L 158.367188 170.816406 L 158.15625 173.632812 L 157.945312 174.101562 L 157.308594 174.101562 L 157.308594 170.113281 L 156.882812 161.429688 L 156.035156 152.984375 L 155.183594 144.066406 L 154.761719 137.496094 Z M 154.761719 134.679688 "/>
<path style=" stroke:none;fill-rule:nonzero;fill:rgb(2.352941%,15.294118%,30.588235%);fill-opacity:1;" d="M 225.664062 145.945312 L 226.726562 146.414062 L 229.273438 151.339844 L 230.121094 153.6875 L 230.761719 156.503906 L 231.398438 164.246094 L 231.609375 167.296875 L 231.820312 174.335938 L 231.820312 189.351562 L 231.398438 195.6875 L 230.761719 200.144531 L 229.910156 202.960938 L 228.847656 205.542969 L 227.152344 207.183594 L 226.726562 207.417969 L 227.152344 206.480469 L 228.847656 203.195312 L 229.699219 200.378906 L 230.546875 194.28125 L 230.761719 190.761719 L 230.761719 168.46875 L 229.910156 156.972656 L 229.0625 153.453125 L 227.363281 149.699219 L 225.664062 147.820312 L 226.089844 147.351562 L 225.664062 146.648438 Z M 225.664062 145.945312 "/>
<path style=" stroke:none;fill-rule:nonzero;fill:rgb(2.745098%,20.784314%,41.568627%);fill-opacity:1;" d="M 40.761719 163.074219 L 42.457031 163.074219 L 43.730469 163.777344 L 45.003906 165.417969 L 45.21875 166.121094 L 45.21875 168 L 44.582031 169.40625 L 43.519531 170.582031 L 41.820312 171.285156 L 39.910156 170.816406 L 38.425781 169.40625 L 37.789062 167.296875 L 38.210938 165.417969 L 38.847656 164.246094 L 40.121094 163.308594 Z M 40.761719 163.074219 "/>
<path style=" stroke:none;fill-rule:nonzero;fill:rgb(1.568627%,4.705882%,8.627451%);fill-opacity:1;" d="M 203.160156 113.5625 L 203.800781 113.800781 L 203.585938 116.378906 L 202.738281 116.613281 L 203.375 116.847656 L 203.585938 118.726562 L 204.011719 127.878906 L 204.4375 131.867188 L 204.4375 133.507812 L 203.800781 133.507812 L 203.160156 129.519531 L 202.949219 126 L 202.738281 118.257812 L 202.523438 118.492188 L 201.25 121.308594 L 198.703125 126.234375 L 194.882812 130.457031 L 192.546875 132.335938 L 191.910156 132.335938 L 191.910156 132.804688 L 191.273438 132.804688 L 190.847656 132.101562 L 187.878906 133.507812 L 184.269531 134.679688 L 181.296875 135.152344 L 181.296875 134.445312 L 180.871094 134.210938 L 184.90625 133.507812 L 188.726562 132.101562 L 192.121094 130.222656 L 194.671875 128.113281 L 197.21875 125.53125 L 199.339844 122.714844 L 201.039062 119.664062 L 202.101562 117.082031 Z M 203.160156 113.5625 "/>
<path style=" stroke:none;fill-rule:nonzero;fill:rgb(99.215686%,99.215686%,99.215686%);fill-opacity:1;" d="M 143.933594 116.613281 L 144.996094 116.847656 L 147.328125 118.492188 L 148.816406 120.367188 L 149.238281 121.542969 L 148.390625 122.949219 L 147.542969 122.714844 L 145.84375 119.898438 L 144.78125 118.492188 L 143.507812 117.789062 L 143.296875 118.726562 L 144.359375 119.195312 L 146.054688 121.308594 L 147.117188 123.183594 L 146.90625 124.59375 L 145.84375 125.296875 L 144.359375 125.0625 L 142.660156 123.417969 L 141.171875 122.246094 L 141.386719 121.074219 L 142.234375 118.960938 L 143.71875 116.847656 Z M 143.933594 116.613281 "/>
<path style=" stroke:none;fill-rule:nonzero;fill:rgb(1.960784%,6.666667%,12.941176%);fill-opacity:1;" d="M 178.535156 116.144531 L 180.023438 116.144531 L 180.660156 116.847656 L 180.871094 117.554688 L 181.082031 120.132812 L 181.082031 122.714844 L 180.871094 124.359375 L 180.234375 125.0625 L 178.960938 125.0625 L 177.898438 123.886719 L 177.261719 122.011719 L 177.050781 121.074219 L 177.050781 118.726562 L 177.6875 116.847656 Z M 178.535156 116.144531 "/>
<path style=" stroke:none;fill-rule:nonzero;fill:rgb(1.568627%,5.882353%,11.372549%);fill-opacity:1;" d="M 120.15625 98.3125 L 120.582031 98.78125 L 118.035156 112.15625 L 115.699219 125.296875 L 114 136.324219 L 113.363281 135.855469 L 113.574219 133.039062 L 114.847656 124.59375 L 117.183594 111.453125 L 119.09375 101.832031 L 119.945312 98.546875 Z M 120.15625 98.3125 "/>
<path style=" stroke:none;fill-rule:nonzero;fill:rgb(1.568627%,5.098039%,9.411765%);fill-opacity:1;" d="M 174.289062 145.710938 L 174.714844 145.710938 L 174.503906 146.648438 L 173.652344 148.523438 L 171.957031 151.339844 L 169.40625 155.800781 L 166.859375 160.023438 L 164.949219 163.074219 L 162.613281 166.359375 L 160.066406 169.40625 L 158.792969 170.816406 L 158.367188 170.816406 L 158.15625 173.632812 L 157.945312 174.101562 L 157.308594 174.101562 L 157.308594 170.816406 L 157.945312 169.40625 L 158.15625 169.878906 L 159.855469 168.234375 L 161.339844 166.359375 L 163.039062 164.246094 L 165.800781 159.789062 L 169.195312 154.15625 L 171.742188 149.699219 L 173.652344 146.648438 Z M 174.289062 145.710938 "/>
<path style=" stroke:none;fill-rule:nonzero;fill:rgb(2.745098%,20%,40%);fill-opacity:1;" d="M 38 71.09375 L 39.910156 71.09375 L 41.183594 72.269531 L 41.609375 74.378906 L 40.972656 75.789062 L 39.910156 76.726562 L 38.210938 76.960938 L 37.152344 76.257812 L 36.300781 75.082031 L 36.089844 73.675781 L 36.726562 72.035156 L 37.363281 71.328125 Z M 38 71.09375 "/>
<path style=" stroke:none;fill-rule:nonzero;fill:rgb(99.215686%,99.215686%,99.215686%);fill-opacity:1;" d="M 154.972656 110.515625 L 156.035156 111.21875 L 158.15625 113.328125 L 159.003906 114.269531 L 157.519531 115.675781 L 157.09375 116.378906 L 155.398438 116.144531 L 153.484375 115.441406 L 151.789062 114.972656 L 151.574219 113.800781 L 153.699219 111.921875 L 154.761719 110.75 Z M 154.972656 110.515625 "/>
<path style=" stroke:none;fill-rule:nonzero;fill:rgb(2.745098%,20.784314%,41.176471%);fill-opacity:1;" d="M 257.507812 137.261719 L 259.417969 137.964844 L 260.269531 139.375 L 260.269531 140.78125 L 259.417969 142.191406 L 258.570312 142.894531 L 257.507812 143.128906 L 255.808594 142.425781 L 255.171875 141.25 L 255.171875 139.375 L 256.023438 137.964844 Z M 257.507812 137.261719 "/>
<path style=" stroke:none;fill-rule:nonzero;fill:rgb(2.745098%,20.392157%,40.392157%);fill-opacity:1;" d="M 169.832031 85.40625 L 172.59375 86.347656 L 173.867188 87.050781 L 174.925781 88.222656 L 174.289062 88.457031 L 174.078125 89.632812 L 173.867188 90.570312 L 172.59375 91.742188 L 171.53125 91.976562 L 170.257812 90.570312 L 169.40625 91.507812 L 168.769531 92.917969 L 168.132812 92.679688 L 168.558594 91.273438 L 169.40625 89.867188 L 170.042969 89.160156 L 170.257812 85.878906 L 169.832031 85.878906 Z M 169.832031 85.40625 "/>
<path style=" stroke:none;fill-rule:nonzero;fill:rgb(1.568627%,5.882353%,10.588235%);fill-opacity:1;" d="M 175.5625 172.925781 L 175.988281 173.160156 L 175.5625 174.335938 L 173.652344 176.679688 L 172.167969 178.558594 L 171.320312 179.730469 L 169.621094 181.375 L 167.285156 183.957031 L 164.101562 186.535156 L 160.066406 188.882812 L 157.308594 189.820312 L 155.398438 190.054688 L 155.398438 189.820312 L 153.699219 189.585938 L 153.699219 189.351562 L 157.09375 188.882812 L 160.28125 187.710938 L 163.464844 185.832031 L 165.585938 184.191406 L 168.132812 181.609375 L 169.832031 179.964844 L 171.53125 178.089844 L 173.441406 175.507812 L 174.925781 173.867188 Z M 175.5625 172.925781 "/>
<path style=" stroke:none;fill-rule:nonzero;fill:rgb(1.960784%,6.666667%,12.156863%);fill-opacity:1;" d="M 174.078125 89.867188 L 174.925781 90.335938 L 175.988281 91.976562 L 175.988281 92.679688 L 175.140625 92.445312 L 174.714844 91.507812 L 173.652344 91.976562 L 171.320312 93.386719 L 170.894531 94.792969 L 170.042969 95.027344 L 170.042969 94.558594 L 168.769531 95.027344 L 163.25 98.546875 L 160.492188 100.425781 L 159.003906 101.363281 L 158.15625 101.363281 L 158.367188 100.660156 L 161.976562 98.3125 L 165.160156 96.199219 L 169.195312 93.621094 L 170.46875 92.679688 L 170.679688 91.039062 L 171.53125 91.742188 L 172.59375 91.507812 L 173.867188 90.335938 Z M 174.078125 89.867188 "/>
<path style=" stroke:none;fill-rule:nonzero;fill:rgb(2.745098%,20.392157%,40.392157%);fill-opacity:1;" d="M 148.601562 221.964844 L 150.089844 221.964844 L 151.363281 223.140625 L 151.789062 224.078125 L 151.574219 225.484375 L 150.300781 226.894531 L 148.390625 226.894531 L 147.328125 225.957031 L 146.90625 224.078125 L 147.753906 222.4375 Z M 148.601562 221.964844 "/>
<path style=" stroke:none;fill-rule:nonzero;fill:rgb(2.745098%,20.784314%,41.176471%);fill-opacity:1;" d="M 281.285156 193.105469 L 282.984375 193.105469 L 284.257812 194.042969 L 284.46875 194.75 L 284.46875 196.390625 L 283.40625 197.800781 L 282.984375 198.035156 L 281.496094 198.035156 L 280.4375 197.328125 L 279.800781 195.921875 L 280.011719 194.515625 L 280.859375 193.339844 Z M 281.285156 193.105469 "/>
<path style=" stroke:none;fill-rule:nonzero;fill:rgb(1.568627%,5.098039%,9.019608%);fill-opacity:1;" d="M 196.367188 224.3125 L 197.429688 224.3125 L 196.367188 225.25 L 194.246094 226.191406 L 192.546875 227.832031 L 191.273438 229.476562 L 191.0625 230.179688 L 190 231.351562 L 187.027344 236.28125 L 185.117188 238.15625 L 184.054688 238.390625 L 183.417969 237.6875 L 184.90625 236.984375 L 186.601562 235.105469 L 188.089844 232.289062 L 188.726562 230.882812 L 190.636719 228.769531 L 192.121094 226.894531 L 194.035156 225.25 Z M 196.367188 224.3125 "/>
<path style=" stroke:none;fill-rule:nonzero;fill:rgb(1.960784%,7.843137%,14.901961%);fill-opacity:1;" d="M 231.398438 184.894531 L 231.609375 184.894531 L 231.609375 193.574219 L 230.972656 198.972656 L 230.121094 202.492188 L 228.847656 205.542969 L 227.152344 207.183594 L 226.726562 207.417969 L 227.152344 206.480469 L 228.847656 203.195312 L 229.699219 200.378906 L 230.546875 194.28125 L 231.183594 185.128906 Z M 231.398438 184.894531 "/>
<path style=" stroke:none;fill-rule:nonzero;fill:rgb(98.823529%,98.823529%,98.823529%);fill-opacity:1;" d="M 180.234375 226.191406 L 180.871094 226.191406 L 179.808594 228.535156 L 178.75 230.179688 L 176.414062 231.820312 L 172.167969 233.933594 L 171.53125 233.933594 L 173.441406 232.054688 L 176.414062 229.476562 L 179.171875 227.128906 Z M 180.234375 226.191406 "/>
<path style=" stroke:none;fill-rule:nonzero;fill:rgb(99.215686%,99.215686%,99.215686%);fill-opacity:1;" d="M 178.75 116.847656 L 179.808594 117.320312 L 180.234375 118.960938 L 180.234375 123.652344 L 180.023438 123.886719 L 178.75 123.886719 L 178.113281 122.246094 L 177.898438 121.308594 L 177.898438 118.257812 L 178.535156 117.082031 Z M 178.75 116.847656 "/>
<path style=" stroke:none;fill-rule:nonzero;fill:rgb(1.568627%,1.568627%,1.960784%);fill-opacity:1;" d="M 97.652344 87.050781 L 123.976562 87.050781 L 123.976562 87.285156 L 112.300781 87.519531 L 111.238281 87.519531 L 111.027344 87.753906 L 97.652344 87.753906 L 97.230469 87.285156 Z M 97.652344 87.050781 "/>
<path style=" stroke:none;fill-rule:nonzero;fill:rgb(1.960784%,7.058824%,13.333333%);fill-opacity:1;" d="M 225.664062 145.945312 L 226.726562 146.414062 L 229.273438 151.339844 L 230.121094 153.6875 L 230.761719 156.503906 L 230.761719 162.367188 L 230.335938 162.367188 L 229.910156 156.972656 L 229.0625 153.453125 L 227.363281 149.699219 L 225.664062 147.820312 L 226.089844 147.351562 L 225.664062 146.648438 Z M 225.664062 145.945312 "/>
<path style=" stroke:none;fill-rule:nonzero;fill:rgb(1.568627%,5.490196%,9.803922%);fill-opacity:1;" d="M 185.328125 88.222656 L 188.089844 88.222656 L 190.636719 89.632812 L 192.121094 91.039062 L 193.398438 93.386719 L 193.398438 93.855469 L 192.546875 93.386719 L 190.210938 90.570312 L 188.300781 89.398438 L 186.179688 89.160156 L 184.269531 89.867188 L 182.570312 91.507812 L 181.71875 92.210938 L 181.933594 90.804688 L 182.78125 89.632812 Z M 185.328125 88.222656 "/>
<path style=" stroke:none;fill-rule:nonzero;fill:rgb(2.745098%,20.784314%,41.568627%);fill-opacity:1;" d="M 234.15625 38.480469 L 235.21875 38.949219 L 236.066406 40.121094 L 236.066406 41.53125 L 235.003906 42.703125 L 233.308594 42.703125 L 232.457031 41.765625 L 232.457031 39.886719 L 233.519531 38.714844 Z M 234.15625 38.480469 "/>
<path style=" stroke:none;fill-rule:nonzero;fill:rgb(99.215686%,99.215686%,99.215686%);fill-opacity:1;" d="M 148.179688 112.15625 L 149.238281 112.390625 L 150.515625 113.5625 L 151.152344 114.503906 L 150.726562 115.675781 L 149.878906 116.847656 L 147.542969 114.503906 L 146.691406 113.800781 L 146.90625 112.859375 Z M 148.179688 112.15625 "/>
<path style=" stroke:none;fill-rule:nonzero;fill:rgb(99.215686%,99.215686%,99.215686%);fill-opacity:1;" d="M 145.417969 114.269531 L 146.480469 114.503906 L 148.816406 116.613281 L 149.664062 118.023438 L 149.878906 119.195312 L 149.664062 119.664062 L 148.816406 119.429688 L 146.691406 117.082031 L 144.570312 115.910156 L 144.78125 114.972656 Z M 145.417969 114.269531 "/>
<path style=" stroke:none;fill-rule:nonzero;fill:rgb(99.215686%,99.215686%,99.215686%);fill-opacity:1;" d="M 136.289062 131.398438 L 137.140625 131.867188 L 138.839844 133.273438 L 139.261719 133.976562 L 139.476562 136.089844 L 139.261719 136.324219 L 137.777344 136.089844 L 136.714844 134.917969 L 135.867188 133.507812 L 135.867188 131.867188 Z M 136.289062 131.398438 "/>
<path style=" stroke:none;fill-rule:nonzero;fill:rgb(2.745098%,21.176471%,41.960784%);fill-opacity:1;" d="M 20.804688 237.921875 L 21.867188 238.15625 L 22.503906 238.859375 L 22.714844 240.269531 L 21.652344 241.675781 L 20.167969 241.675781 L 19.53125 241.207031 L 19.320312 239.5625 L 19.957031 238.390625 Z M 20.804688 237.921875 "/>
<path style=" stroke:none;fill-rule:nonzero;fill:rgb(1.568627%,5.098039%,9.411765%);fill-opacity:1;" d="M 132.257812 65.464844 L 132.679688 65.464844 L 132.679688 66.167969 L 130.347656 68.042969 L 128.011719 70.15625 L 124.828125 73.675781 L 124.191406 73.441406 L 125.039062 72.035156 L 127.375 69.453125 L 129.710938 67.339844 L 131.832031 65.699219 Z M 132.257812 65.464844 "/>
<path style=" stroke:none;fill-rule:nonzero;fill:rgb(1.960784%,7.45098%,14.509804%);fill-opacity:1;" d="M 136.714844 76.257812 L 138.414062 76.257812 L 138.839844 76.492188 L 138.625 77.195312 L 134.59375 77.429688 L 129.285156 78.367188 L 129.285156 77.429688 L 132.46875 76.726562 Z M 136.714844 76.257812 "/>
<path style=" stroke:none;fill-rule:nonzero;fill:rgb(2.745098%,19.607843%,38.823529%);fill-opacity:1;" d="M 133.320312 179.964844 L 134.59375 180.199219 L 135.015625 180.90625 L 135.015625 182.546875 L 134.167969 183.25 L 132.679688 183.015625 L 132.042969 182.078125 L 132.257812 180.90625 Z M 133.320312 179.964844 "/>
<path style=" stroke:none;fill-rule:nonzero;fill:rgb(1.568627%,5.490196%,10.196078%);fill-opacity:1;" d="M 121.429688 63.351562 L 122.066406 63.585938 L 121.21875 69.21875 L 120.367188 72.972656 L 119.308594 73.207031 L 119.945312 70.859375 L 121.21875 63.585938 Z M 121.429688 63.351562 "/>
<path style=" stroke:none;fill-rule:nonzero;fill:rgb(1.568627%,4.313725%,7.843137%);fill-opacity:1;" d="M 231.398438 184.894531 L 231.609375 184.894531 L 231.609375 193.574219 L 230.972656 195.6875 L 230.761719 195.6875 L 230.761719 190.761719 L 230.972656 189.117188 L 231.183594 185.128906 Z M 231.398438 184.894531 "/>
<path style=" stroke:none;fill-rule:nonzero;fill:rgb(1.960784%,6.666667%,12.156863%);fill-opacity:1;" d="M 183.417969 100.425781 L 184.269531 100.660156 L 185.753906 102.535156 L 186.601562 103.003906 L 187.878906 102.769531 L 189.152344 101.832031 L 190 100.894531 L 190.210938 101.363281 L 189.574219 102.535156 L 188.515625 103.476562 L 187.453125 103.945312 L 185.328125 103.476562 L 183.632812 101.363281 Z M 183.417969 100.425781 "/>
<path style=" stroke:none;fill-rule:nonzero;fill:rgb(99.215686%,99.215686%,99.215686%);fill-opacity:1;" d="M 187.453125 232.996094 L 187.664062 233.464844 L 186.390625 235.574219 L 184.691406 237.453125 L 183.417969 237.6875 L 184.691406 236.042969 Z M 187.453125 232.996094 "/>
<path style=" stroke:none;fill-rule:nonzero;fill:rgb(2.745098%,21.176471%,41.960784%);fill-opacity:1;" d="M 157.945312 164.480469 L 158.15625 164.480469 L 158.367188 169.878906 L 157.945312 169.878906 L 157.519531 170.582031 L 157.308594 170.113281 L 157.308594 166.359375 Z M 157.945312 164.480469 "/>
<path style=" stroke:none;fill-rule:nonzero;fill:rgb(2.745098%,20.784314%,41.568627%);fill-opacity:1;" d="M 154.761719 134.679688 L 155.398438 135.386719 L 155.820312 137.964844 L 155.820312 140.78125 L 155.609375 140.78125 L 155.398438 139.609375 L 155.183594 140.78125 L 154.972656 140.78125 L 154.761719 137.496094 Z M 154.761719 134.679688 "/>
<path style=" stroke:none;fill-rule:nonzero;fill:rgb(1.960784%,9.411765%,18.431373%);fill-opacity:1;" d="M 184.90625 133.507812 L 185.542969 133.742188 L 185.753906 134.210938 L 181.933594 135.152344 L 181.296875 135.152344 L 181.296875 134.445312 L 180.871094 134.210938 Z M 184.90625 133.507812 "/>
<path style=" stroke:none;fill-rule:nonzero;fill:rgb(1.568627%,5.490196%,10.588235%);fill-opacity:1;" d="M 169.832031 89.632812 L 170.257812 89.632812 L 170.257812 90.570312 L 169.40625 91.507812 L 168.769531 92.917969 L 168.132812 92.679688 L 168.558594 91.273438 L 169.40625 89.867188 Z M 169.832031 89.632812 "/>
<path style=" stroke:none;fill-rule:nonzero;fill:rgb(1.568627%,3.529412%,5.882353%);fill-opacity:1;" d="M 203.160156 113.5625 L 203.800781 113.800781 L 203.585938 116.378906 L 202.3125 116.847656 L 202.738281 114.738281 Z M 203.160156 113.5625 "/>
<path style=" stroke:none;fill-rule:nonzero;fill:rgb(1.568627%,3.529412%,5.882353%);fill-opacity:1;" d="M 97.652344 87.050781 L 101.261719 87.050781 L 101.261719 87.519531 L 100.839844 87.753906 L 97.652344 87.753906 L 97.230469 87.285156 Z M 97.652344 87.050781 "/>
<path style=" stroke:none;fill-rule:nonzero;fill:rgb(99.215686%,99.215686%,99.215686%);fill-opacity:1;" d="M 173.230469 89.867188 L 174.078125 89.867188 L 173.652344 90.804688 L 172.59375 91.742188 L 171.53125 91.976562 L 172.167969 90.804688 Z M 173.230469 89.867188 "/>
<path style=" stroke:none;fill-rule:nonzero;fill:rgb(1.960784%,6.27451%,12.156863%);fill-opacity:1;" d="M 108.269531 87.050781 L 111.238281 87.050781 L 111.027344 87.753906 L 107.632812 87.753906 Z M 108.269531 87.050781 "/>
<path style=" stroke:none;fill-rule:nonzero;fill:rgb(2.352941%,12.941176%,25.098039%);fill-opacity:1;" d="M 157.09375 188.882812 L 157.945312 189.117188 L 157.308594 189.820312 L 155.398438 190.054688 L 155.398438 189.820312 L 153.699219 189.585938 L 153.699219 189.351562 Z M 157.09375 188.882812 "/>
<path style=" stroke:none;fill-rule:nonzero;fill:rgb(2.352941%,13.333333%,26.27451%);fill-opacity:1;" d="M 157.308594 170.816406 L 158.15625 171.519531 L 158.15625 173.632812 L 157.945312 174.101562 L 157.308594 174.101562 Z M 157.308594 170.816406 "/>
<path style=" stroke:none;fill-rule:nonzero;fill:rgb(2.352941%,13.333333%,26.27451%);fill-opacity:1;" d="M 190.210938 228.769531 L 190.636719 229.003906 L 187.878906 232.054688 L 187.238281 231.820312 L 190 229.003906 Z M 190.210938 228.769531 "/>
<path style=" stroke:none;fill-rule:nonzero;fill:rgb(2.352941%,11.764706%,22.745098%);fill-opacity:1;" d="M 159.21875 291.886719 L 159.855469 292.121094 L 159.855469 292.59375 L 157.730469 293.0625 L 157.730469 292.59375 L 157.09375 292.359375 Z M 159.21875 291.886719 "/>
<path style=" stroke:none;fill-rule:nonzero;fill:rgb(2.352941%,14.117647%,27.45098%);fill-opacity:1;" d="M 230.335938 155.328125 L 230.546875 155.328125 L 230.761719 157.675781 L 230.335938 157.675781 L 230.335938 159.082031 L 230.121094 159.082031 L 230.121094 155.5625 Z M 230.335938 155.328125 "/>
<path style=" stroke:none;fill-rule:nonzero;fill:rgb(1.960784%,10.588235%,20.784314%);fill-opacity:1;" d="M 206.984375 113.328125 L 208.257812 113.5625 L 207.40625 114.035156 L 206.132812 114.269531 L 205.285156 113.800781 L 205.496094 113.5625 Z M 206.984375 113.328125 "/>
<path style=" stroke:none;fill-rule:nonzero;fill:rgb(1.960784%,8.627451%,16.470588%);fill-opacity:1;" d="M 120.15625 98.3125 L 120.582031 98.78125 L 120.15625 101.128906 L 119.519531 100.894531 L 119.945312 98.546875 Z M 120.15625 98.3125 "/>
<path style=" stroke:none;fill-rule:nonzero;fill:rgb(1.568627%,5.098039%,9.411765%);fill-opacity:1;" d="M 154.972656 133.742188 L 155.609375 134.210938 L 155.609375 136.558594 L 154.972656 136.324219 Z M 154.972656 133.742188 "/>
</g>
</svg>
